<svg width="655" height="335" viewBox="0 0 655 335" fill="none" xmlns="http://www.w3.org/2000/svg">
<g clip-path="url(#clip0_126_6112)">
<path d="M320.301 334.615C492.07 334.615 631.316 326.5 631.316 316.489C631.316 306.479 492.07 298.364 320.301 298.364C148.532 298.364 9.28516 306.479 9.28516 316.489C9.28516 326.5 148.532 334.615 320.301 334.615Z" fill="#F5F5F5"/>
<path d="M117.234 315.527L76.8136 300.61L35.9116 315.527C34.468 316.008 33.0244 315.046 33.0244 313.442C33.0244 312.64 33.5056 311.838 34.3076 311.517L76.8136 291.788L118.838 311.517C119.64 311.838 120.122 312.64 120.122 313.442C120.122 315.046 118.678 316.008 117.234 315.527Z" fill="#263238"/>
<path opacity="0.3" d="M117.234 315.527L76.8136 300.61L35.9116 315.527C34.468 316.008 33.0244 315.046 33.0244 313.442C33.0244 312.64 33.5056 311.838 34.3076 311.517L76.8136 291.788L118.838 311.517C119.64 311.838 120.122 312.64 120.122 313.442C120.122 315.046 118.678 316.008 117.234 315.527Z" fill="white"/>
<path opacity="0.2" d="M67.3501 304.139L76.8137 300.61L85.9565 303.978V296.119L76.8137 291.788L67.3501 296.279V304.139Z" fill="black"/>
<path d="M76.6533 315.848C74.7285 315.848 73.2849 314.405 73.1245 312.64L72.0017 300.61V201.162H81.4653V300.61L80.3425 312.64C80.0217 314.565 78.4177 315.848 76.6533 315.848Z" fill="#263238"/>
<path opacity="0.3" d="M76.6533 315.848C74.7285 315.848 73.2849 314.405 73.1245 312.64L72.0017 300.61V201.162H81.4653V300.61L80.3425 312.64C80.0217 314.565 78.4177 315.848 76.6533 315.848Z" fill="white"/>
<path opacity="0.2" d="M81.3049 201.162H71.8413V212.711H81.3049V201.162Z" fill="black"/>
<path d="M55.48 98.6663C56.7632 98.6663 58.2068 99.3078 59.0088 100.751C76.332 129.463 82.4272 163.949 76.4924 196.991C76.1716 199.077 74.728 200.039 73.124 200.199C70.5576 200.36 24.0416 200.199 22.2772 200.199C19.7108 200.199 16.984 198.114 17.6256 194.746C23.2396 164.109 17.1444 131.869 1.10443 105.243C-0.820367 101.874 2.06683 98.8267 4.95403 98.8267C6.23723 98.6663 52.4324 98.8267 55.48 98.6663Z" fill="#C11E2E"/>
<path opacity="0.2" d="M55.48 98.6663C56.7632 98.6663 58.2068 99.3078 59.0088 100.751C76.332 129.463 82.4272 163.949 76.4924 196.991C76.1716 199.077 74.728 200.039 73.124 200.199C70.5576 200.36 24.0416 200.199 22.2772 200.199C19.7108 200.199 16.984 198.114 17.6256 194.746C23.2396 164.109 17.1444 131.869 1.10443 105.243C-0.820367 101.874 2.06683 98.8267 4.95403 98.8267C6.23723 98.6663 52.4324 98.8267 55.48 98.6663Z" fill="black"/>
<path d="M17.626 194.586C23.24 163.949 17.1448 131.709 1.10479 105.083C-1.78241 100.271 5.75639 95.9397 8.64359 100.752C25.9668 129.463 32.062 163.949 26.1272 196.992C25.0044 202.445 16.5032 200.2 17.626 194.586Z" fill="#C11E2E"/>
<g opacity="0.1">
<path d="M17.626 194.586C23.24 163.949 17.1448 131.709 1.10479 105.083C-1.78241 100.271 5.75639 95.9397 8.64359 100.752C25.9668 129.463 32.062 163.949 26.1272 196.992C25.0044 202.445 16.5032 200.2 17.626 194.586Z" fill="white"/>
</g>
<path d="M162.628 192.18C151.881 189.453 140.974 188.009 130.066 187.688C118.678 187.368 76.3325 187.688 66.2273 187.688C54.0369 187.688 41.6861 189.132 29.8165 192.18C22.2777 194.104 24.6837 204.851 31.4205 205.012C32.0621 205.012 160.222 205.012 160.703 205.012C167.76 205.332 170.327 194.104 162.628 192.18Z" fill="#C11E2E"/>
<path opacity="0.3" d="M162.628 192.18C151.881 189.453 140.974 188.009 130.066 187.688C118.678 187.368 76.3325 187.688 66.2273 187.688C54.0369 187.688 41.6861 189.132 29.8165 192.18C22.2777 194.104 24.6837 204.851 31.4205 205.012C32.0621 205.012 160.222 205.012 160.703 205.012C167.76 205.332 170.327 194.104 162.628 192.18Z" fill="black"/>
<path d="M33.3454 204.691C54.839 199.237 77.6158 199.237 99.2698 204.691C107.45 206.776 110.819 194.104 102.799 192.019C79.0593 185.924 53.7161 185.924 29.9769 192.019C21.7965 194.265 25.165 206.776 33.3454 204.691Z" fill="#C11E2E"/>
<g opacity="0.3">
<path d="M33.3454 204.691C54.839 199.237 77.6158 199.237 99.2698 204.691C107.45 206.776 110.819 194.104 102.799 192.019C79.0593 185.924 53.7161 185.924 29.9769 192.019C21.7965 194.265 25.165 206.776 33.3454 204.691Z" fill="white"/>
</g>
<path d="M151.399 124.01L166.156 123.368L170.487 120.481C171.449 119.839 172.733 119.679 174.016 119.839L177.224 120.641C178.828 121.122 180.592 120.481 181.715 119.198C183.64 116.952 182.998 113.744 180.432 112.3L175.62 109.734C174.016 108.932 172.251 109.092 170.808 110.055L163.109 115.829L151.399 115.027V124.01Z" fill="#EBB376"/>
<path d="M135.359 66.9072L130.227 111.819L158.938 113.904L157.655 124.17C157.655 124.17 128.623 129.303 118.036 126.416C107.45 123.528 121.565 74.9272 121.565 74.9272L135.359 66.9072Z" fill="#C11E2E"/>
<path opacity="0.2" d="M135.359 66.9072L130.227 111.819L158.938 113.904L157.655 124.17C157.655 124.17 128.623 129.303 118.036 126.416C107.45 123.528 121.565 74.9272 121.565 74.9272L135.359 66.9072Z" fill="white"/>
<path opacity="0.1" d="M126.217 122.245C118.678 118.396 128.783 81.0224 132.312 68.6716L121.565 74.9272C121.565 74.9272 107.45 123.528 118.036 126.416C124.613 128.18 138.086 126.897 147.55 125.774C141.134 125.614 131.67 125.132 126.217 122.245Z" fill="black"/>
<path d="M110.016 154.646C110.016 154.646 80.5026 160.902 45.6958 158.335C45.6958 158.335 50.6682 100.912 68.1518 69.3132C70.8786 64.3408 75.5302 60.4912 81.1442 58.8872C93.6554 55.0376 114.026 51.5088 135.52 66.9072C135.359 66.9072 124.452 87.1176 110.016 154.646Z" fill="#C11E2E"/>
<path opacity="0.4" d="M110.016 154.646C110.016 154.646 80.5026 160.902 45.6958 158.335C45.6958 158.335 50.6682 100.912 68.1518 69.3132C70.8786 64.3408 75.5302 60.4912 81.1442 58.8872C93.6554 55.0376 114.026 51.5088 135.52 66.9072C135.359 66.9072 124.452 87.1176 110.016 154.646Z" fill="white"/>
<path d="M120.442 81.1829C120.442 82.1453 119.64 82.9472 118.678 82.9472C117.716 82.9472 116.914 82.1453 116.914 81.1829C116.914 80.2205 117.716 79.4185 118.678 79.4185C119.64 79.4185 120.442 80.2205 120.442 81.1829Z" fill="#C11E2E"/>
<path d="M114.347 98.8269C114.347 99.7893 113.545 100.591 112.583 100.591C111.62 100.591 110.818 99.7893 110.818 98.8269C110.818 97.8645 111.62 97.0625 112.583 97.0625C113.545 97.0625 114.347 97.8645 114.347 98.8269Z" fill="#C11E2E"/>
<path d="M107.129 124.01C108.104 124.01 108.894 123.22 108.894 122.245C108.894 121.271 108.104 120.481 107.129 120.481C106.155 120.481 105.365 121.271 105.365 122.245C105.365 123.22 106.155 124.01 107.129 124.01Z" fill="#C11E2E"/>
<path d="M104.242 141.814C104.242 142.776 103.44 143.578 102.478 143.578C101.515 143.578 100.713 142.776 100.713 141.814C100.713 140.852 101.515 140.05 102.478 140.05C103.44 140.05 104.242 140.852 104.242 141.814Z" fill="#C11E2E"/>
<path opacity="0.1" d="M122.527 103.318L100.713 108.29L83.5502 103.639L76.8134 84.2305L75.3698 73.3232H70.5578C70.5578 73.3232 65.9062 107.97 81.6254 122.245C91.4098 131.067 107.45 125.293 118.036 119.679C119.64 113.744 121.244 108.29 122.527 103.318Z" fill="black"/>
<path d="M136.643 259.227L129.104 292.109L138.568 295.798L152.041 262.595L136.643 259.227Z" fill="#EBB376"/>
<path d="M137.926 293.552L129.425 289.061C129.104 288.901 128.623 288.901 128.302 289.222L122.207 296.279C121.726 296.921 121.726 297.883 122.367 298.364C122.528 298.364 122.528 298.525 122.688 298.525C126.217 300.45 129.585 301.893 133.916 304.299C139.049 307.026 137.445 307.026 143.54 310.394C147.229 312.48 150.116 308.63 148.673 307.507C141.936 302.695 141.134 299.487 139.69 295.477C139.37 294.675 138.728 294.034 137.926 293.552Z" fill="#263238"/>
<path d="M60.6131 157.212L106.648 154.646C106.648 154.646 183.159 166.676 182.036 188.009C180.913 209.342 149.796 276.871 149.796 276.871L131.51 271.738C131.51 271.738 145.465 203.889 154.447 192.661C154.447 192.661 97.3447 185.924 83.0691 182.074C75.2095 180.15 56.2823 183.678 60.6131 157.212Z" fill="#263238"/>
<path opacity="0.2" d="M146.908 191.698C147.069 187.368 146.748 180.631 143.38 173.252C139.049 163.628 104.082 157.854 87.3999 155.608L60.7735 157.052C56.4427 183.518 75.3699 179.989 83.2295 182.074C94.1367 185.122 130.708 189.774 146.908 191.698Z" fill="black"/>
<path d="M105.365 268.209L104.242 302.054L114.347 302.535L121.084 268.69L105.365 268.209Z" fill="#EBB376"/>
<path d="M113.545 299.487L103.761 299.648C103.28 299.648 102.959 299.968 102.959 300.45L101.034 309.753C100.874 310.555 101.355 311.357 102.157 311.517C102.317 311.517 102.317 311.517 102.478 311.517C106.648 311.357 110.177 311.036 115.31 311.036C121.405 310.876 119.801 311.678 126.858 311.678C131.189 311.678 131.831 306.866 130.066 306.545C121.726 305.582 119.32 303.176 116.112 300.289C115.31 299.648 114.508 299.327 113.545 299.487Z" fill="#263238"/>
<path d="M72.9639 157.212C72.9639 157.212 134.557 159.458 138.247 178.225C141.936 197.152 121.244 281.522 121.244 281.522H102.798C102.798 281.522 105.044 205.653 111.139 189.774C111.139 189.774 60.2923 197.794 46.9791 186.245C37.3551 178.064 48.7435 157.212 48.7435 157.212H72.9639Z" fill="#263238"/>
<path d="M130.227 267.728L153.164 274.144L148.994 282.966L127.981 277.833L130.227 267.728Z" fill="#263238"/>
<path opacity="0.3" d="M130.227 267.728L153.164 274.144L148.994 282.966L127.981 277.833L130.227 267.728Z" fill="black"/>
<path d="M129.104 97.0625L147.55 90.9673L159.259 96.2605C160.382 96.7417 161.184 97.7041 161.344 98.9873L162.628 105.724C163.109 107.97 161.344 110.055 158.938 110.055C158.136 110.055 157.174 109.734 156.532 109.253L146.267 100.752L130.227 107.168L129.104 97.0625Z" fill="#EBB376"/>
<path d="M100.874 276.871L124.132 277.994L121.886 287.136L100.874 286.014V276.871Z" fill="#263238"/>
<path opacity="0.3" d="M100.874 276.871L124.132 277.994L121.886 287.136L100.874 286.014V276.871Z" fill="black"/>
<path d="M71.8411 66.9073C75.3699 61.6141 81.1443 56.0001 95.5803 103.158L138.728 92.5713L140.011 104.441C140.011 104.441 104.723 123.368 90.6079 120.641C76.3323 117.914 61.8963 81.5037 71.8411 66.9073Z" fill="#C11E2E"/>
<path opacity="0.2" d="M71.8411 66.9073C75.3699 61.6141 81.1443 56.0001 95.5803 103.158L138.728 92.5713L140.011 104.441C140.011 104.441 104.723 123.368 90.6079 120.641C76.3323 117.914 61.8963 81.5037 71.8411 66.9073Z" fill="white"/>
<path d="M116.914 50.386L108.733 58.0852C108.733 58.0852 111.941 68.03 120.122 68.03C128.302 68.03 123.33 55.3584 123.33 55.3584L116.914 50.386Z" fill="#EBB376"/>
<path d="M121.244 73.8044L125.254 71.7192L126.858 69.1528L126.217 61.2932C118.838 57.604 111.781 56 105.204 55.5188L104.884 59.208L109.375 72.04L114.508 73.8044H121.244Z" fill="#EBB376"/>
<path opacity="0.1" d="M123.329 55.5188L116.913 50.5464L115.791 51.5088C115.149 55.198 114.507 63.0576 118.678 66.1052C120.282 67.3884 121.886 67.3884 123.329 67.0676C126.698 64.02 123.329 55.5188 123.329 55.5188Z" fill="black"/>
<path d="M118.999 74.7668L125.094 77.9748C129.425 72.842 128.302 65.624 127.34 61.7744C126.538 61.4536 125.896 60.9724 125.094 60.6516C125.896 66.426 125.254 72.6816 118.518 72.842C107.931 73.1628 106.327 59.5288 106.006 55.5188C105.204 55.5188 104.402 55.3584 103.761 55.3584C100.392 70.436 109.856 77.9748 109.856 77.9748L118.999 74.7668Z" fill="#C11E2E"/>
<path opacity="0.2" d="M118.999 74.7668L125.094 77.9748C129.425 72.842 128.302 65.624 127.34 61.7744C126.538 61.4536 125.896 60.9724 125.094 60.6516C125.896 66.426 125.254 72.6816 118.518 72.842C107.931 73.1628 106.327 59.5288 106.006 55.5188C105.204 55.5188 104.402 55.3584 103.761 55.3584C100.392 70.436 109.856 77.9748 109.856 77.9748L118.999 74.7668Z" fill="white"/>
<path d="M145.304 31.2983C151.239 35.1479 149.475 44.6115 143.38 48.6215C141.615 37.7143 145.304 31.2983 145.304 31.2983Z" fill="#263238"/>
<path opacity="0.4" d="M145.304 31.2983C151.239 35.1479 149.475 44.6115 143.38 48.6215C141.615 37.7143 145.304 31.2983 145.304 31.2983Z" fill="black"/>
<path d="M118.518 37.5541C116.272 47.6593 114.508 53.2733 118.036 60.0101C121.405 66.5865 129.425 69.1529 136.001 65.7845C138.407 64.5013 140.332 62.5765 141.776 60.1705C146.427 51.9901 149.154 36.9125 140.813 30.0153C135.199 25.0429 126.698 25.6845 121.726 31.2985C119.961 33.0629 118.999 35.3085 118.518 37.5541Z" fill="#EBB376"/>
<path d="M117.395 47.0176C122.688 49.7444 126.217 40.2808 125.415 35.7896C132.472 40.6016 148.031 39.7996 152.683 33.544C157.655 26.6468 150.116 20.712 143.379 18.4664C141.455 17.8248 139.69 19.2684 139.209 21.1932C139.049 21.514 138.888 21.8348 138.728 21.9952C138.728 21.9952 136.803 20.2308 134.076 18.6268C131.67 17.3436 128.943 17.9852 127.019 19.91C126.217 20.5516 124.292 20.712 120.442 19.4288C112.422 16.702 110.979 25.524 114.989 27.128C111.46 29.2132 105.525 35.3084 108.733 40.4412C111.941 45.574 114.668 52.6316 112.903 53.7544C114.347 54.5564 117.234 52.792 117.395 47.0176Z" fill="#263238"/>
<path d="M112.422 44.7721C112.422 47.0177 113.385 49.2633 114.989 50.8673C117.074 52.9525 119.48 51.3485 120.122 48.6217C120.603 46.0553 120.122 41.8849 117.395 40.7621C114.668 39.6393 112.422 41.8849 112.422 44.7721Z" fill="#EBB376"/>
<path d="M132.472 45.0927C132.312 45.8947 132.472 46.6967 132.953 46.8571C133.435 47.0175 134.076 46.5364 134.237 45.7344C134.397 44.9324 134.237 44.1303 133.755 43.9699C133.274 43.8095 132.633 44.2907 132.472 45.0927Z" fill="#263238"/>
<path d="M141.455 47.9799C141.294 48.7819 141.455 49.584 141.936 49.7444C142.417 49.9048 143.059 49.4235 143.219 48.6215C143.54 47.8195 143.219 47.0175 142.738 46.8571C142.257 46.6967 141.615 47.1779 141.455 47.9799Z" fill="#263238"/>
<path d="M138.407 47.4988C138.728 50.2256 139.209 52.9524 140.171 55.5188C138.407 56.3208 136.161 55.0376 136.161 55.0376L138.407 47.4988Z" fill="#D58745"/>
<path d="M130.547 41.2433C130.547 41.2433 130.387 41.2433 130.387 41.0829C130.227 40.9225 130.227 40.6017 130.547 40.4413C131.831 39.4789 133.435 39.1581 134.878 39.6393C135.199 39.7997 135.199 39.9601 135.199 40.2809C135.039 40.6017 134.878 40.6017 134.557 40.6017C133.435 40.2809 132.151 40.4413 131.189 41.2433C130.868 41.4037 130.708 41.4037 130.547 41.2433Z" fill="#263238"/>
<path d="M146.106 46.2156C145.946 46.2156 145.785 46.0552 145.785 45.8948C145.625 44.6116 144.823 43.4888 143.7 42.8472C143.54 42.6868 143.379 42.366 143.54 42.2056C143.7 42.0452 143.861 41.8848 144.021 42.0452C145.465 42.8472 146.427 44.1304 146.587 45.7344C146.587 46.0552 146.427 46.2156 146.267 46.2156C146.267 46.2156 146.267 46.2156 146.106 46.2156Z" fill="#263238"/>
<path d="M131.831 57.7644C132.312 57.9248 132.793 57.9248 133.274 58.0852C133.435 58.0852 133.595 58.0852 133.595 57.9248C133.595 57.7644 133.435 57.604 133.274 57.604C130.868 57.2832 128.783 56 127.66 53.9148C127.66 53.7544 127.5 53.7544 127.34 53.7544C127.179 53.7544 127.179 53.9148 127.179 54.0752C127.981 56 129.746 57.2832 131.831 57.7644Z" fill="#263238"/>
<path d="M116.112 27.6092C116.112 27.6092 112.743 26.9676 111.46 22.9576C111.139 21.9952 109.856 21.9952 109.375 22.7972C108.092 25.6844 107.45 29.6944 116.112 27.6092Z" fill="#2E353A"/>
<path d="M183.961 39.7996H179.309C175.299 39.7996 171.77 43.0076 171.45 47.0176L167.44 91.9296C167.119 95.9396 170.006 99.1476 174.016 99.1476H178.668L183.961 39.7996Z" fill="#C11E2E"/>
<path opacity="0.3" d="M183.961 39.7996H179.309C175.299 39.7996 171.77 43.0076 171.45 47.0176L167.44 91.9296C167.119 95.9396 170.006 99.1476 174.016 99.1476H178.668L183.961 39.7996Z" fill="white"/>
<path d="M252.291 99.1476H177.224C173.214 99.1476 170.327 95.9396 170.648 91.9296L174.658 47.0176C174.978 43.0076 178.507 39.7996 182.517 39.7996H257.584C261.594 39.7996 264.482 43.0076 264.161 47.0176L260.151 91.9296C259.83 95.9396 256.301 99.1476 252.291 99.1476Z" fill="#C11E2E"/>
<path opacity="0.2" d="M252.291 99.1476H177.224C173.214 99.1476 170.327 95.9396 170.648 91.9296L174.658 47.0176C174.978 43.0076 178.507 39.7996 182.517 39.7996H257.584C261.594 39.7996 264.482 43.0076 264.161 47.0176L260.151 91.9296C259.83 95.9396 256.301 99.1476 252.291 99.1476Z" fill="black"/>
<path opacity="0.5" d="M218.768 65.1428C218.768 64.822 218.768 64.3408 218.928 64.02C218.447 63.8596 217.966 63.8596 217.484 63.8596C214.276 63.8596 211.87 66.426 211.87 69.4736C211.87 72.6816 214.437 75.0876 217.484 75.0876C220.692 75.0876 223.098 72.5212 223.098 69.4736C220.692 69.4736 218.768 67.5488 218.768 65.1428Z" fill="white"/>
<path d="M213.956 120.802H219.73L217.484 94.6565C217.324 93.2129 216.041 92.0901 214.597 92.0901C212.833 92.0901 211.55 93.5337 211.71 95.1377L213.956 120.802Z" fill="#263238"/>
<path opacity="0.3" d="M213.956 120.802H219.73L217.484 94.6565C217.324 93.2129 216.041 92.0901 214.597 92.0901C212.833 92.0901 211.55 93.5337 211.71 95.1377L213.956 120.802Z" fill="white"/>
<path d="M232.241 128.34C232.241 119.999 225.504 113.263 217.164 113.263C208.823 113.263 202.086 119.999 202.086 128.34H232.241Z" fill="#C11E2E"/>
<path opacity="0.5" d="M232.241 128.34C232.241 119.999 225.504 113.263 217.164 113.263C208.823 113.263 202.086 119.999 202.086 128.34H232.241Z" fill="white"/>
<path d="M196.633 128.34H172.733C171.129 128.34 169.846 127.057 169.846 125.453C169.846 123.849 171.129 122.566 172.733 122.566H196.633C198.237 122.566 199.52 123.849 199.52 125.453C199.52 127.057 198.237 128.34 196.633 128.34Z" fill="#C11E2E"/>
<path opacity="0.3" d="M196.633 128.34H172.733C171.129 128.34 169.846 127.057 169.846 125.453C169.846 123.849 171.129 122.566 172.733 122.566H196.633C198.237 122.566 199.52 123.849 199.52 125.453C199.52 127.057 198.237 128.34 196.633 128.34Z" fill="white"/>
<path d="M174.176 128.34H150.277C148.673 128.34 147.39 127.057 147.39 125.453C147.39 123.849 148.673 122.566 150.277 122.566H174.176C175.78 122.566 177.064 123.849 177.064 125.453C177.064 127.057 175.78 128.34 174.176 128.34Z" fill="#C11E2E"/>
<path opacity="0.5" d="M174.176 128.34H150.277C148.673 128.34 147.39 127.057 147.39 125.453C147.39 123.849 148.673 122.566 150.277 122.566H174.176C175.78 122.566 177.064 123.849 177.064 125.453C177.064 127.057 175.78 128.34 174.176 128.34Z" fill="white"/>
<path d="M374.356 98.9871C373.073 98.9871 371.629 99.6287 370.827 101.072C353.504 129.784 347.409 164.27 353.343 197.312C353.664 199.397 355.108 200.36 356.712 200.52C359.278 200.681 405.794 200.52 407.559 200.52C410.125 200.52 412.852 198.435 412.21 195.067C406.596 164.43 412.691 132.19 428.731 105.563C430.656 102.195 427.769 99.1475 424.882 99.1475C423.599 98.9871 377.403 99.1475 374.356 98.9871Z" fill="#C11E2E"/>
<path opacity="0.2" d="M374.356 98.9871C373.073 98.9871 371.629 99.6287 370.827 101.072C353.504 129.784 347.409 164.27 353.343 197.312C353.664 199.397 355.108 200.36 356.712 200.52C359.278 200.681 405.794 200.52 407.559 200.52C410.125 200.52 412.852 198.435 412.21 195.067C406.596 164.43 412.691 132.19 428.731 105.563C430.656 102.195 427.769 99.1475 424.882 99.1475C423.599 98.9871 377.403 99.1475 374.356 98.9871Z" fill="black"/>
<path d="M412.21 195.067C406.596 164.43 412.691 132.19 428.731 105.563C431.618 100.751 424.08 96.4207 421.192 101.233C403.869 129.944 397.774 164.43 403.709 197.473C404.832 202.766 413.172 200.52 412.21 195.067Z" fill="#C11E2E"/>
<g opacity="0.2">
<path d="M412.21 195.067C406.596 164.43 412.691 132.19 428.731 105.563C431.618 100.751 424.08 96.4207 421.192 101.233C403.869 129.944 397.774 164.43 403.709 197.473C404.832 202.766 413.172 200.52 412.21 195.067Z" fill="white"/>
</g>
<path d="M383.659 315.848L343.238 300.931L302.336 315.848C300.892 316.329 299.449 315.367 299.449 313.763C299.449 312.961 299.93 312.159 300.732 311.838L343.238 292.109L385.263 311.838C386.065 312.159 386.546 312.961 386.546 313.763C386.546 315.367 385.102 316.489 383.659 315.848Z" fill="#263238"/>
<path opacity="0.3" d="M383.659 315.848L343.238 300.931L302.336 315.848C300.892 316.329 299.449 315.367 299.449 313.763C299.449 312.961 299.93 312.159 300.732 311.838L343.238 292.109L385.263 311.838C386.065 312.159 386.546 312.961 386.546 313.763C386.546 315.367 385.102 316.489 383.659 315.848Z" fill="white"/>
<path opacity="0.2" d="M333.774 304.459L343.238 301.091L352.381 304.299V296.439L343.238 292.269L333.774 296.6V304.459Z" fill="black"/>
<path d="M343.078 316.329C341.153 316.329 339.709 314.885 339.549 313.121L338.426 301.091V201.643H347.89V301.091L346.767 313.121C346.446 314.885 344.842 316.329 343.078 316.329Z" fill="#263238"/>
<path opacity="0.3" d="M343.078 316.329C341.153 316.329 339.709 314.885 339.549 313.121L338.426 301.091V201.643H347.89V301.091L346.767 313.121C346.446 314.885 344.842 316.329 343.078 316.329Z" fill="white"/>
<path opacity="0.2" d="M347.89 201.483H338.426V213.031H347.89V201.483Z" fill="black"/>
<path d="M268.492 192.5C279.238 189.773 290.146 188.33 301.053 188.009C312.441 187.688 354.787 188.009 364.892 188.009C377.082 188.009 389.433 189.453 401.303 192.5C408.842 194.425 406.436 205.172 399.699 205.332C399.057 205.332 270.898 205.332 270.416 205.332C263.519 205.653 260.953 194.425 268.492 192.5Z" fill="#C11E2E"/>
<path opacity="0.3" d="M268.492 192.5C279.238 189.773 290.146 188.33 301.053 188.009C312.441 187.688 354.787 188.009 364.892 188.009C377.082 188.009 389.433 189.453 401.303 192.5C408.842 194.425 406.436 205.172 399.699 205.332C399.057 205.332 270.898 205.332 270.416 205.332C263.519 205.653 260.953 194.425 268.492 192.5Z" fill="black"/>
<path d="M397.934 205.012C376.441 199.558 353.664 199.558 332.01 205.012C323.83 207.097 320.461 194.425 328.481 192.5C352.22 186.405 377.564 186.405 401.303 192.5C409.483 194.586 406.115 207.097 397.934 205.012Z" fill="#C11E2E"/>
<g opacity="0.3">
<path d="M397.934 205.012C376.441 199.558 353.664 199.558 332.01 205.012C323.83 207.097 320.461 194.425 328.481 192.5C352.22 186.405 377.564 186.405 401.303 192.5C409.483 194.586 406.115 207.097 397.934 205.012Z" fill="white"/>
</g>
<path d="M335.699 45.5739C335.699 45.5739 327.839 44.7719 330.245 33.0627C332.651 21.3535 332.491 10.1255 349.975 11.4087C349.975 11.4087 363.769 7.87988 367.619 20.8723C371.468 33.8647 377.243 43.0075 368.1 46.8571C356.551 51.6691 353.664 41.0827 353.664 41.0827L336.822 42.6867L335.699 45.5739Z" fill="#263238"/>
<path d="M333.133 62.7368C323.028 61.2932 328 96.1 319.018 102.356C314.045 105.724 289.183 96.5811 289.183 96.5811L285.654 85.3531C285.494 84.7115 285.013 84.2304 284.532 84.07L279.399 81.9848C277.955 81.3432 276.351 82.7868 276.672 84.3908L278.597 92.7316C278.757 93.0524 278.918 93.3732 279.078 93.694L286.296 101.393C286.296 101.393 315.97 115.829 323.348 113.423C331.689 110.696 334.897 95.2979 336.982 86.1551C338.426 79.4183 340.832 63.8596 333.133 62.7368Z" fill="#B97964"/>
<path d="M321.584 271.096L324.632 294.515L316.13 294.675L309.875 272.059L321.584 271.096Z" fill="#B97964"/>
<path d="M315.97 293.392H325.754C326.235 293.392 326.556 293.713 326.556 294.033L328.481 303.176C328.641 303.978 328.16 304.78 327.358 304.941C327.198 304.941 327.198 304.941 327.037 304.941C323.027 304.941 319.499 304.62 314.366 304.62C308.431 304.62 309.875 305.261 302.977 305.422C298.807 305.422 298.005 300.77 299.769 300.449C307.95 299.487 310.195 296.921 313.403 294.033C314.205 293.713 315.007 293.392 315.97 293.392Z" fill="#263238"/>
<path opacity="0.1" d="M313.564 285.212L309.875 272.059L321.584 271.096L323.348 284.57L313.564 285.212Z" fill="black"/>
<path d="M350.937 130.426H337.143C337.143 130.426 333.454 139.729 332.812 149.674C332.17 159.618 350.937 152.24 350.937 152.24L352.541 138.766L350.937 130.426Z" fill="#263238"/>
<path d="M263.198 238.535L254.056 265.001L246.517 262.916L252.612 235.006L263.198 238.535Z" fill="#B97964"/>
<path d="M246.677 260.831L255.98 263.718C256.462 263.878 256.622 264.199 256.622 264.68L256.301 273.984C256.301 274.786 255.66 275.427 254.697 275.427C254.537 275.427 254.537 275.427 254.376 275.427C250.527 274.304 247.158 273.182 242.186 271.898C236.412 270.455 237.695 271.417 230.958 269.813C226.948 268.851 227.269 264.039 229.194 264.199C237.374 265.322 240.261 263.076 243.95 261.152C244.913 260.67 245.715 260.67 246.677 260.831Z" fill="#263238"/>
<path opacity="0.1" d="M258.226 252.971L249.243 250.726L252.612 235.006L263.198 238.535L258.226 252.971Z" fill="black"/>
<path d="M378.366 129.142C378.366 129.142 392.32 152.561 389.914 172.13C387.508 191.698 369.383 202.124 299.77 168.761C299.77 168.761 285.494 183.518 261.755 246.876L249.725 243.187C249.725 243.187 263.359 169.884 275.549 149.192C287.9 128.18 342.115 152.882 346.125 148.711C349.814 145.022 346.606 130.586 346.606 130.586L378.366 129.142Z" fill="#263238"/>
<path d="M264.802 245.593L262.236 250.565L247.8 245.593V239.979L264.802 245.593Z" fill="#C11E2E"/>
<path d="M383.98 66.426L334.576 62.7368C331.529 62.5764 329.123 64.9824 329.444 68.03C329.444 68.03 330.406 74.2857 330.246 76.3709C329.764 81.6641 327.038 89.3632 328 93.0524C328.802 95.9396 331.689 99.1476 332.972 102.356C335.539 109.253 336.02 131.869 336.02 131.869C351.9 134.436 380.29 130.586 380.29 130.586C373.874 107.649 383.498 80.862 386.386 69.7944C386.867 68.1904 385.744 66.5864 383.98 66.426Z" fill="#C11E2E"/>
<path opacity="0.7" d="M383.98 66.426L334.576 62.7368C331.529 62.5764 329.123 64.9824 329.444 68.03C329.444 68.03 330.406 74.2857 330.246 76.3709C329.764 81.6641 327.038 89.3632 328 93.0524C328.802 95.9396 331.689 99.1476 332.972 102.356C335.539 109.253 336.02 131.869 336.02 131.869C351.9 134.436 380.29 130.586 380.29 130.586C373.874 107.649 383.498 80.862 386.386 69.7944C386.867 68.1904 385.744 66.5864 383.98 66.426Z" fill="white"/>
<path opacity="0.1" d="M376.762 93.5334L359.759 111.017L335.539 115.989H335.378C335.539 118.716 335.699 121.443 335.86 123.689C342.596 123.689 364.571 123.207 370.827 117.754C374.035 115.027 376.601 110.857 378.526 107.007C378.847 102.997 379.328 99.1475 379.97 95.2979L376.762 93.5334Z" fill="black"/>
<path opacity="0.2" d="M291.91 175.338L288.06 172.45C288.06 172.45 274.587 179.668 281.324 200.36C286.136 190.255 290.146 183.037 293.193 178.225L291.91 175.338Z" fill="black"/>
<path d="M349.975 188.009C337.303 184.962 320.942 178.866 299.77 168.761C299.77 168.761 283.409 168.922 282.286 181.112C281.163 193.302 309.875 277.352 309.875 277.352L323.188 276.229C323.188 276.229 315.328 192.5 313.564 188.17L349.975 188.009Z" fill="#263238"/>
<path opacity="0.2" d="M299.77 168.761C299.77 168.761 297.203 168.761 294.156 169.563C297.203 172.29 307.629 180.952 323.669 188.009H349.975C337.464 184.962 320.942 178.866 299.77 168.761Z" fill="black"/>
<path d="M324.792 273.983L325.113 279.437L309.714 280.56L307.469 275.427L324.792 273.983Z" fill="#C11E2E"/>
<path d="M360.722 43.4888L349.975 54.0752C351.739 62.7368 345.323 63.5388 345.323 63.5388C345.323 63.5388 345.804 66.5864 353.664 66.1052C361.524 65.624 364.09 64.822 364.09 64.822C359.438 61.1328 360.08 49.7444 360.722 43.4888Z" fill="#B97964"/>
<path opacity="0.1" d="M350.135 58.8872C350.456 57.604 350.456 56 349.975 53.9148L359.599 44.4512L360.561 45.574C360.561 45.7344 358.636 57.7644 350.135 58.8872Z" fill="black"/>
<path d="M361.684 29.3735C362.486 39.7995 362.967 44.1303 358.636 50.0651C351.899 59.0475 339.067 57.7643 335.218 47.8195C331.689 38.8371 331.047 23.4387 340.511 17.9851C347.248 13.9751 355.909 16.3811 359.919 23.1179C360.882 25.0427 361.523 27.2883 361.684 29.3735Z" fill="#B97964"/>
<path d="M340.511 39.96C340.03 42.0452 339.228 43.97 338.266 45.7344C339.228 46.2156 340.351 46.2156 341.313 45.8948L340.511 39.96Z" fill="#A24E3F"/>
<path d="M348.371 32.9025C348.371 32.9025 348.531 32.9024 348.531 32.742C348.692 32.5816 348.692 32.2609 348.531 32.1005C347.408 31.1381 345.804 30.6568 344.2 30.9776C344.04 30.9776 343.88 31.2984 343.88 31.4588C343.88 31.6192 344.2 31.7796 344.361 31.7796C345.644 31.4588 346.927 31.7796 347.89 32.742C348.05 32.9024 348.21 32.9025 348.371 32.9025Z" fill="#2E353A"/>
<path d="M332.972 34.346C332.972 34.346 333.133 34.346 333.133 34.1856C333.935 33.2232 335.218 32.742 336.501 32.742C336.662 32.742 336.982 32.5816 336.982 32.4212C336.982 32.2608 336.822 31.94 336.662 31.94C335.058 31.7796 333.614 32.4212 332.491 33.7044C332.331 33.8648 332.331 34.1856 332.491 34.346C332.652 34.346 332.812 34.346 332.972 34.346Z" fill="#2E353A"/>
<path d="M346.286 37.7144C346.446 38.5164 346.125 39.3184 345.484 39.3184C345.003 39.4788 344.361 38.8372 344.361 37.8748C344.201 37.0728 344.521 36.2708 345.163 36.2708C345.484 36.2708 346.125 36.9124 346.286 37.7144Z" fill="#2E353A"/>
<path d="M336.822 38.9975C336.982 39.7995 336.662 40.6015 336.02 40.6015C335.539 40.6015 334.897 40.1204 334.897 39.158C334.897 38.1956 335.058 37.554 335.699 37.554C336.02 37.554 336.662 38.1955 336.822 38.9975Z" fill="#2E353A"/>
<path d="M335.86 37.7144L333.774 37.3936C333.774 37.3936 334.897 38.8372 335.86 37.7144Z" fill="#2E353A"/>
<path d="M345.323 36.4311L343.238 36.1104C343.238 36.1104 344.361 37.5539 345.323 36.4311Z" fill="#2E353A"/>
<path d="M346.927 46.2156C347.088 45.8948 347.248 45.574 347.408 45.2532C347.408 45.0928 347.408 45.0928 347.248 44.9324C347.088 44.9324 347.088 44.9324 346.927 45.0928C346.286 46.6968 345.002 47.98 343.398 48.4612C343.238 48.4612 343.238 48.6216 343.238 48.6216C343.238 48.782 343.398 48.782 343.398 48.782C344.842 48.6216 346.125 47.4988 346.927 46.2156Z" fill="#263238"/>
<path d="M353.664 14.2958C346.927 12.6918 340.19 16.0602 340.19 16.0602C340.19 16.0602 332.491 22.9574 334.255 29.5338C334.255 29.5338 335.057 28.7318 336.982 28.2506C336.822 26.4862 336.982 23.2782 338.907 21.193C338.907 21.193 338.105 24.7218 339.228 27.7694C341.473 27.4486 344.681 27.609 348.691 28.8922C348.691 28.8922 349.975 26.1654 348.691 20.2306C348.691 20.2306 351.258 24.2406 351.418 30.3358C351.579 36.431 359.438 38.035 359.438 38.035C359.438 38.035 364.411 37.5538 364.411 30.817C364.09 24.401 360.401 16.0602 353.664 14.2958Z" fill="#263238"/>
<path d="M350.777 13.9751C350.777 13.9751 347.569 6.11553 341.313 8.04033C335.058 9.96513 345.965 9.96513 350.777 13.9751Z" fill="#263238"/>
<path d="M365.213 37.2331C364.892 39.1579 363.769 41.0827 362.165 42.2055C360.08 43.8095 357.995 42.0451 357.834 39.4787C357.674 37.2331 358.636 33.7043 361.203 33.0627C363.128 32.7419 364.892 33.8647 365.213 35.7895C365.373 36.2707 365.373 36.7519 365.213 37.2331Z" fill="#B97964"/>
<path d="M384.621 66.2656C379.649 64.6616 373.072 83.4284 370.185 89.2028C369.062 91.6088 367.138 97.0624 365.694 101.393C364.411 105.082 361.524 107.97 357.834 109.092L331.529 116.471L320.782 113.263C319.98 113.102 319.178 113.102 318.376 113.584L313.083 117.273C312.281 117.754 311.8 118.716 311.8 119.679C311.8 121.443 313.243 122.726 314.847 122.566L330.727 121.283C330.727 121.283 356.391 122.726 367.619 116.471C378.847 110.215 393.122 69.1528 384.621 66.2656Z" fill="#B97964"/>
<path d="M364.25 122.566H273.143C271.699 122.566 270.577 123.689 270.577 125.133C270.577 126.576 271.699 127.699 273.143 127.699H364.25C365.694 127.699 366.817 126.576 366.817 125.133C366.817 123.689 365.533 122.566 364.25 122.566Z" fill="#263238"/>
<path opacity="0.3" d="M364.25 122.566H273.143C271.699 122.566 270.577 123.689 270.577 125.133C270.577 126.576 271.699 127.699 273.143 127.699H364.25C365.694 127.699 366.817 126.576 366.817 125.133C366.817 123.689 365.533 122.566 364.25 122.566Z" fill="white"/>
<path d="M274.426 126.095H305.544C306.346 126.095 306.988 125.293 306.667 124.491L289.664 75.7292C289.183 74.446 287.9 73.4836 286.456 73.4836H255.339C254.537 73.4836 253.895 74.2856 254.216 75.0876L271.218 123.849C271.7 125.132 272.983 126.095 274.426 126.095Z" fill="#263238"/>
<path opacity="0.5" d="M274.426 126.095H305.544C306.346 126.095 306.988 125.293 306.667 124.491L289.664 75.7292C289.183 74.446 287.9 73.4836 286.456 73.4836H255.339C254.537 73.4836 253.895 74.2856 254.216 75.0876L271.218 123.849C271.7 125.132 272.983 126.095 274.426 126.095Z" fill="white"/>
<path d="M272.983 126.095H304.1C304.902 126.095 305.544 125.293 305.223 124.491L288.221 75.7292C287.74 74.446 286.456 73.4836 285.013 73.4836H253.895C253.093 73.4836 252.452 74.2856 252.772 75.0876L269.775 123.849C270.256 125.132 271.539 126.095 272.983 126.095Z" fill="#263238"/>
<path d="M276.351 99.7893C276.672 101.714 278.116 103.158 279.238 103.158C280.361 103.158 281.163 101.714 280.682 99.7893C280.361 97.8645 278.918 96.4209 277.795 96.4209C276.672 96.4209 276.03 97.8645 276.351 99.7893Z" fill="white"/>
<path opacity="0.2" d="M309.554 127.539C308.11 127.539 306.988 126.416 306.988 124.972C306.988 123.529 308.11 122.406 309.554 122.406H364.09C365.534 122.406 366.656 123.529 366.656 124.972C366.656 126.416 365.534 127.539 364.09 127.539H309.554Z" fill="white"/>
<path d="M580.951 315.848C582.875 315.848 584.319 314.244 584.159 312.319L575.176 138.285H565.713L577.582 312.8C577.743 314.565 579.186 315.848 580.951 315.848Z" fill="#263238"/>
<path opacity="0.5" d="M580.951 315.848C582.875 315.848 584.319 314.244 584.159 312.319L575.176 138.285H565.713L577.582 312.8C577.743 314.565 579.186 315.848 580.951 315.848Z" fill="white"/>
<path opacity="0.2" d="M575.176 138.446H565.873L566.675 149.994H575.818L575.176 138.446Z" fill="black"/>
<path d="M449.102 315.848C447.177 315.848 445.734 314.244 445.894 312.319L454.876 138.285H464.34L452.47 312.8C452.15 314.565 450.866 315.848 449.102 315.848Z" fill="#263238"/>
<path opacity="0.5" d="M449.102 315.848C447.177 315.848 445.734 314.244 445.894 312.319L454.876 138.285H464.34L452.47 312.8C452.15 314.565 450.866 315.848 449.102 315.848Z" fill="white"/>
<path opacity="0.2" d="M454.074 149.994H463.378L464.18 138.446H454.716L454.074 149.994Z" fill="black"/>
<path d="M239.138 315.848C241.063 315.848 242.507 314.244 242.346 312.319L233.364 138.285H223.9L235.77 312.8C235.93 314.565 237.374 315.848 239.138 315.848Z" fill="#263238"/>
<path opacity="0.5" d="M239.138 315.848C241.063 315.848 242.507 314.244 242.346 312.319L233.364 138.285H223.9L235.77 312.8C235.93 314.565 237.374 315.848 239.138 315.848Z" fill="white"/>
<path opacity="0.2" d="M233.524 138.446H224.061L224.863 149.994H234.166L233.524 138.446Z" fill="black"/>
<path d="M107.29 315.848C105.365 315.848 103.921 314.244 104.082 312.319L113.064 138.285H122.528L110.658 312.8C110.498 314.565 109.054 315.848 107.29 315.848Z" fill="#263238"/>
<path opacity="0.5" d="M107.29 315.848C105.365 315.848 103.921 314.244 104.082 312.319L113.064 138.285H122.528L110.658 312.8C110.498 314.565 109.054 315.848 107.29 315.848Z" fill="white"/>
<path opacity="0.2" d="M112.422 149.994H121.565L122.367 138.446H112.904L112.422 149.994Z" fill="black"/>
<path d="M582.876 132.832H103.921V138.285H582.876V132.832Z" fill="#263238"/>
<path opacity="0.3" d="M582.876 132.832H103.921V138.285H582.876V132.832Z" fill="white"/>
<path opacity="0.2" d="M582.715 132.832H445.573V138.285H582.715V132.832Z" fill="black"/>
<path d="M595.226 127.378H91.5703V132.832H595.226V127.378Z" fill="#C11E2E"/>
<path opacity="0.3" d="M595.066 127.378H433.222V132.832H595.066V127.378Z" fill="black"/>
<path d="M483.748 127.538H459.849C458.245 127.538 456.962 126.255 456.962 124.651C456.962 123.047 458.245 121.764 459.849 121.764H483.748C485.352 121.764 486.636 123.047 486.636 124.651C486.636 126.255 485.352 127.538 483.748 127.538Z" fill="#C11E2E"/>
<path opacity="0.3" d="M483.748 127.538H459.849C458.245 127.538 456.962 126.255 456.962 124.651C456.962 123.047 458.245 121.764 459.849 121.764H483.748C485.352 121.764 486.636 123.047 486.636 124.651C486.636 126.255 485.352 127.538 483.748 127.538Z" fill="white"/>
<path d="M461.292 127.538H437.393C435.789 127.538 434.506 126.255 434.506 124.651C434.506 123.047 435.789 121.764 437.393 121.764H461.292C462.896 121.764 464.18 123.047 464.18 124.651C464.18 126.255 462.896 127.538 461.292 127.538Z" fill="#C11E2E"/>
<path opacity="0.5" d="M461.292 127.538H437.393C435.789 127.538 434.506 126.255 434.506 124.651C434.506 123.047 435.789 121.764 437.393 121.764H461.292C462.896 121.764 464.18 123.047 464.18 124.651C464.18 126.255 462.896 127.538 461.292 127.538Z" fill="white"/>
<path d="M381.092 40.762H376.441C372.431 40.762 369.544 43.97 369.864 47.98L373.874 92.892C374.195 96.902 377.724 100.11 381.734 100.11H386.386L381.092 40.762Z" fill="#C11E2E"/>
<path d="M381.092 40.762H376.441C372.431 40.762 369.544 43.97 369.864 47.98L373.874 92.892C374.195 96.902 377.724 100.11 381.734 100.11H386.386L381.092 40.762Z" fill="#C11E2E"/>
<path d="M420.07 120H414.295L416.862 91.2881H422.636L420.07 120Z" fill="#263238"/>
<path opacity="0.3" d="M420.07 120H414.295L416.862 91.2881H422.636L420.07 120Z" fill="white"/>
<path d="M459.849 100.11H384.782C380.772 100.11 377.243 96.902 376.922 92.892L372.912 47.98C372.591 43.97 375.478 40.762 379.488 40.762H454.716C458.726 40.762 462.255 43.97 462.576 47.98L466.586 92.892C466.746 96.902 463.859 100.11 459.849 100.11Z" fill="#C11E2E"/>
<path opacity="0.5" d="M459.849 100.11H384.782C380.772 100.11 377.243 96.902 376.922 92.892L372.912 47.98C372.591 43.97 375.478 40.762 379.488 40.762H454.716C458.726 40.762 462.255 43.97 462.576 47.98L466.586 92.892C466.746 96.902 463.859 100.11 459.849 100.11Z" fill="white"/>
<path opacity="0.5" d="M454.876 43.6492H379.809C377.403 43.6492 375.639 45.574 375.96 47.98L379.97 92.892C380.13 95.298 382.215 97.2228 384.621 97.2228H459.688C462.094 97.2228 463.859 95.298 463.538 92.892L459.528 47.98C459.368 45.574 457.282 43.6492 454.876 43.6492Z" fill="white"/>
<path d="M403.228 127.538C403.228 119.197 409.964 112.461 418.305 112.461C426.646 112.461 433.383 119.197 433.383 127.538H403.228Z" fill="#C11E2E"/>
<path opacity="0.5" d="M403.228 127.538C403.228 119.197 409.964 112.461 418.305 112.461C426.646 112.461 433.383 119.197 433.383 127.538H403.228Z" fill="white"/>
<path d="M438.034 54.7168C437.393 54.7168 397.453 54.7168 396.812 54.7168C395.849 54.7168 395.208 55.3584 395.368 56.3208C395.368 57.2832 396.17 57.9248 397.132 57.9248C397.774 57.9248 437.714 57.9248 438.355 57.9248C439.318 57.9248 439.959 57.2832 439.799 56.3208C439.638 55.3584 438.997 54.7168 438.034 54.7168Z" fill="white"/>
<path d="M432.902 61.4536C432.26 61.4536 397.935 61.4536 397.293 61.4536C396.331 61.4536 395.689 62.0952 395.849 63.0576C395.849 64.02 396.651 64.6616 397.614 64.6616C398.255 64.6616 432.581 64.6616 433.222 64.6616C434.185 64.6616 434.826 64.02 434.666 63.0576C434.506 62.0952 433.864 61.4536 432.902 61.4536Z" fill="white"/>
<path d="M437.072 68.1904C436.43 68.1904 398.576 68.1904 397.934 68.1904C396.972 68.1904 396.33 68.832 396.491 69.7944C396.651 70.7568 397.293 71.3984 398.255 71.3984C398.897 71.3984 436.751 71.3984 437.393 71.3984C438.355 71.3984 438.997 70.7568 438.836 69.7944C438.676 68.832 437.874 68.1904 437.072 68.1904Z" fill="white"/>
<path d="M431.939 74.7668C431.298 74.7668 399.218 74.7668 398.576 74.7668C397.614 74.7668 396.972 75.4084 397.132 76.3708C397.132 77.3332 397.934 77.9748 398.897 77.9748C399.538 77.9748 431.618 77.9748 432.26 77.9748C433.222 77.9748 433.864 77.3332 433.704 76.3708C433.543 75.4084 432.741 74.7668 431.939 74.7668Z" fill="white"/>
<g opacity="0.6">
<path d="M438.034 54.7168C437.393 54.7168 397.453 54.7168 396.812 54.7168C395.849 54.7168 395.208 55.3584 395.368 56.3208C395.368 57.2832 396.17 57.9248 397.132 57.9248C397.774 57.9248 437.714 57.9248 438.355 57.9248C439.318 57.9248 439.959 57.2832 439.799 56.3208C439.638 55.3584 438.997 54.7168 438.034 54.7168Z" fill="white"/>
<path d="M432.902 61.4536C432.26 61.4536 397.935 61.4536 397.293 61.4536C396.331 61.4536 395.689 62.0952 395.849 63.0576C395.849 64.02 396.651 64.6616 397.614 64.6616C398.255 64.6616 432.581 64.6616 433.222 64.6616C434.185 64.6616 434.826 64.02 434.666 63.0576C434.506 62.0952 433.864 61.4536 432.902 61.4536Z" fill="white"/>
<path d="M437.072 68.1904C436.43 68.1904 398.576 68.1904 397.934 68.1904C396.972 68.1904 396.33 68.832 396.491 69.7944C396.651 70.7568 397.293 71.3984 398.255 71.3984C398.897 71.3984 436.751 71.3984 437.393 71.3984C438.355 71.3984 438.997 70.7568 438.836 69.7944C438.676 68.832 437.874 68.1904 437.072 68.1904Z" fill="white"/>
<path d="M431.939 74.7668C431.298 74.7668 399.218 74.7668 398.576 74.7668C397.614 74.7668 396.972 75.4084 397.132 76.3708C397.132 77.3332 397.934 77.9748 398.897 77.9748C399.538 77.9748 431.618 77.9748 432.26 77.9748C433.222 77.9748 433.864 77.3332 433.704 76.3708C433.543 75.4084 432.741 74.7668 431.939 74.7668Z" fill="white"/>
</g>
<path d="M521.763 17.0227C521.763 17.0227 512.3 18.7871 512.46 13.0127C512.62 7.23827 522.405 9.96508 522.405 9.96508L521.763 17.0227Z" fill="#1A2E35"/>
<path opacity="0.4" d="M521.763 17.0227C521.763 17.0227 512.3 18.7871 512.46 13.0127C512.62 7.23827 522.405 9.96508 522.405 9.96508L521.763 17.0227Z" fill="black"/>
<path d="M515.828 30.9775L511.498 37.8747C511.498 37.8747 513.743 39.4787 516.951 38.3559L515.828 30.9775Z" fill="#A24E3F"/>
<path d="M513.262 30.0151C513.262 30.8171 513.743 31.6191 514.224 31.6191C514.866 31.6191 515.347 30.8171 515.347 30.0151C515.347 29.2131 514.866 28.4111 514.385 28.4111C513.743 28.4111 513.262 29.0527 513.262 30.0151Z" fill="#1A2E35"/>
<path d="M547.267 24.4011C547.588 36.1103 548.069 41.0827 542.776 47.6591C534.435 54.5563 520.32 55.3582 516.47 43.9698C512.941 33.7042 512.941 16.381 523.848 10.6066C531.708 6.43624 541.332 9.48384 545.502 17.3434C546.625 19.589 547.267 21.9951 547.267 24.4011Z" fill="#B97964"/>
<path opacity="0.2" d="M530.746 52.6315L530.585 51.9899C530.425 50.7067 529.142 49.9047 527.858 50.2255L523.046 51.5087C525.613 52.6315 528.179 52.9523 530.746 52.6315Z" fill="black"/>
<path d="M516.47 26.0051C516.31 26.0051 516.149 26.0051 515.989 25.8447C515.187 24.8823 514.064 24.4011 512.941 24.4011C512.62 24.4011 512.46 24.2407 512.46 24.0803C512.46 23.7595 512.62 23.5991 512.941 23.5991C514.385 23.4387 515.828 24.0803 516.791 25.2031C516.951 25.3635 516.951 25.6843 516.791 25.8447C516.63 25.8447 516.47 26.0051 516.47 26.0051Z" fill="#1A2E35"/>
<path d="M530.425 49.7442L532.991 67.0673L547.427 64.0197L542.776 46.2153L530.425 49.7442Z" fill="#B97964"/>
<path d="M524.49 32.7418L521.924 34.6666C521.924 34.6666 519.999 27.7694 522.886 21.3534L519.999 16.8622L520.48 13.8146C520.48 13.8146 515.989 6.43625 519.518 4.35105C523.046 2.10545 525.292 6.75705 525.292 6.75705C525.292 6.75705 527.698 -0.460969 532.029 0.501431C536.36 1.46383 534.114 5.95505 534.114 5.95505C534.114 5.95505 541.011 0.982636 544.219 3.38864C547.427 5.79464 543.417 9.32343 543.417 9.32343C543.417 9.32343 551.598 9.48384 551.918 12.6918C552.239 15.8998 548.55 16.2206 548.55 16.2206C548.55 16.2206 554.004 18.1454 553.843 21.0326C553.683 23.9198 549.512 24.0802 549.512 24.0802C549.512 24.0802 555.126 27.609 553.843 30.6566C552.72 33.7042 549.512 32.7418 549.512 32.7418C549.512 32.7418 552.4 36.431 551.437 38.3558C550.475 40.2806 548.069 40.1203 548.069 40.1203L543.417 48.461C543.417 48.461 539.407 46.857 536.039 49.9046L527.538 35.9498L524.49 32.7418Z" fill="#1A2E35"/>
<path d="M523.046 29.6942C522.565 32.1002 523.207 34.5062 524.49 36.431C526.254 38.9974 529.302 37.8745 530.425 35.1477C531.548 32.5813 531.708 28.2505 529.142 26.6465C526.575 25.0425 523.688 26.807 523.046 29.6942Z" fill="#B97964"/>
<path d="M550.314 62.095L547.427 53.9146C547.427 53.9146 536.36 48.9422 525.292 57.1226L533.472 61.9346L550.314 62.095Z" fill="#263238"/>
<path opacity="0.2" d="M549.031 58.4057C540.69 56.3205 533.472 58.0849 529.302 59.6889L533.472 62.0949H550.475L549.031 58.4057Z" fill="black"/>
<path d="M499.628 115.669L488.881 110.375C488.24 110.055 487.598 110.055 486.956 110.215L478.134 113.744C477.332 114.065 476.691 114.867 476.691 115.829L476.53 118.716C476.37 120.481 478.134 121.764 479.738 121.122L482.946 119.999C482.946 119.999 489.844 123.368 499.147 120.481L499.628 115.669Z" fill="#B97964"/>
<path d="M458.886 116.31L448.14 110.857C447.498 110.536 446.856 110.536 446.215 110.696L437.393 114.225C436.591 114.546 435.949 115.348 435.949 116.31L435.789 119.197C435.628 120.962 437.393 122.245 438.997 121.603L442.205 120.481C442.205 120.481 449.102 123.849 458.405 120.962L458.886 116.31Z" fill="#B97964"/>
<path d="M556.249 65.1427C550.956 69.6339 537.963 82.6264 520.801 113.263H498.986C498.986 113.263 495.939 115.829 497.222 122.085C497.222 122.085 519.517 130.105 525.613 127.378C531.708 124.651 551.277 94.6563 560.099 83.9095C563.146 80.2203 568.439 75.2479 560.901 65.6239C559.778 64.3407 557.693 64.0199 556.249 65.1427Z" fill="#263238"/>
<path opacity="0.2" d="M532.029 108.29L526.736 103.318C524.811 106.526 522.886 109.894 520.961 113.423H515.668L519.036 127.859C521.924 128.18 524.33 128.18 525.773 127.538C527.377 126.897 529.944 124.17 532.831 120.641L532.029 108.29Z" fill="black"/>
<path d="M528.019 274.625L532.991 298.685L542.776 297.241L540.37 273.823L528.019 274.625Z" fill="#B97964"/>
<path opacity="0.2" d="M541.974 289.221L540.37 273.823L528.019 274.625L531.066 289.703L541.974 289.221Z" fill="black"/>
<path d="M586.244 163.628C586.244 163.628 591.216 189.773 574.214 189.773C557.212 189.773 534.435 195.387 534.435 195.387C534.435 195.387 541.011 201.643 542.455 280.56L528.34 281.201C528.34 281.201 504.921 192.019 509.412 182.235C515.989 168.44 549.673 163.789 549.673 163.789L586.244 163.628Z" fill="#C11E2E"/>
<path d="M526.736 278.314L543.096 277.833L543.898 285.853L527.698 286.495L526.736 278.314Z" fill="#C11E2E"/>
<path opacity="0.5" d="M526.736 278.314L543.096 277.833L543.898 285.853L527.698 286.495L526.736 278.314Z" fill="white"/>
<path d="M528.5 300.289C527.217 300.449 525.934 300.289 525.453 299.808C525.132 299.487 525.132 299.166 525.292 298.685C525.453 298.364 525.613 298.204 525.934 298.043C527.538 297.402 531.387 299.006 531.548 299.006C531.708 299.006 531.708 299.166 531.708 299.166C531.708 299.327 531.708 299.327 531.548 299.327C530.585 299.968 529.623 300.129 528.5 300.289ZM526.736 298.525C526.575 298.525 526.415 298.525 526.255 298.685C526.094 298.685 525.934 298.845 525.773 299.006C525.613 299.327 525.773 299.487 525.773 299.487C526.255 300.129 528.981 299.808 530.746 299.327C529.463 298.845 528.179 298.525 526.736 298.525Z" fill="#C11E2E"/>
<path d="M531.548 299.647C530.104 299.327 527.377 297.402 527.538 296.119C527.538 295.798 527.698 295.477 528.34 295.317C528.821 295.156 529.302 295.317 529.783 295.637C531.227 296.6 531.868 299.327 531.868 299.327C531.868 299.487 531.868 299.487 531.708 299.487C531.708 299.647 531.708 299.647 531.548 299.647ZM528.66 295.798C528.019 295.958 528.019 296.119 528.019 296.119C528.019 296.76 529.783 298.364 531.227 299.006C530.906 297.883 530.425 296.76 529.462 295.958C529.302 295.798 528.981 295.798 528.66 295.798Z" fill="#C11E2E"/>
<path d="M532.51 298.043L543.738 296.76C544.219 296.76 544.54 296.921 544.7 297.402L547.748 306.224C548.069 307.026 547.588 307.828 546.786 308.149C546.625 308.149 546.625 308.149 546.465 308.149C542.455 308.63 538.766 308.79 533.793 309.432C527.858 310.073 529.462 310.715 522.565 311.677C518.395 312.159 517.112 307.507 518.876 307.186C526.896 305.261 527.377 302.695 530.264 299.327C530.746 298.525 531.708 298.043 532.51 298.043Z" fill="#263238"/>
<path opacity="0.1" d="M538.926 185.282H514.064L508.771 187.528C508.931 192.821 510.054 200.841 511.818 209.984L536.841 202.766C535.397 196.35 534.435 195.227 534.435 195.227C534.435 195.227 536.68 194.746 540.37 193.944L538.926 185.282Z" fill="black"/>
<path opacity="0.1" d="M555.768 187.047C555.768 187.047 555.287 188.971 555.287 191.217C560.901 190.415 566.996 189.773 572.61 189.613C579.026 181.914 573.412 175.017 573.412 175.017L563.467 179.508L555.768 187.047Z" fill="black"/>
<path d="M499.307 281.041L508.61 303.497L517.593 301.733L511.337 277.673L499.307 281.041Z" fill="#B97964"/>
<path opacity="0.2" d="M515.508 293.713L511.337 277.673L499.307 281.041L505.242 295.637L515.508 293.713Z" fill="black"/>
<path d="M574.054 165.072C574.054 165.072 579.026 191.217 562.024 191.217C545.021 191.217 493.854 206.936 493.854 206.936C493.854 206.936 501.392 209.663 514.385 282.645L499.628 286.013C499.628 286.013 462.736 206.455 467.388 196.671C473.964 182.876 537.643 165.072 537.643 165.072H574.054Z" fill="#C11E2E"/>
<path d="M497.703 284.891L515.187 281.201L517.112 288.419L500.27 292.269L497.703 284.891Z" fill="#C11E2E"/>
<path opacity="0.5" d="M497.703 284.891L515.187 281.201L517.112 288.419L500.27 292.269L497.703 284.891Z" fill="white"/>
<path d="M502.996 304.62C501.713 304.78 500.43 304.62 499.949 304.139C499.628 303.818 499.628 303.497 499.788 303.016C499.949 302.695 500.109 302.535 500.43 302.374C502.034 301.733 505.884 303.337 506.044 303.337C506.204 303.337 506.204 303.497 506.204 303.497C506.204 303.657 506.204 303.657 506.044 303.657C505.082 304.299 503.959 304.459 502.996 304.62ZM501.072 302.855C500.911 302.855 500.751 302.855 500.59 303.016C500.43 303.016 500.27 303.176 500.109 303.337C499.949 303.657 500.109 303.818 500.109 303.818C500.59 304.459 503.317 304.139 505.082 303.657C503.959 303.176 502.515 302.855 501.072 302.855Z" fill="#C11E2E"/>
<path d="M506.044 303.978C504.6 303.657 501.873 301.733 502.034 300.449C502.034 300.129 502.194 299.808 502.836 299.647C503.317 299.487 503.798 299.647 504.279 299.968C505.723 300.931 506.365 303.657 506.365 303.657C506.365 303.818 506.365 303.818 506.204 303.818C506.204 303.978 506.044 303.978 506.044 303.978ZM502.996 300.129C502.355 300.289 502.355 300.449 502.355 300.449C502.355 301.091 504.119 302.695 505.563 303.337C505.242 302.214 504.761 301.091 503.798 300.289C503.638 300.129 503.317 300.129 502.996 300.129Z" fill="#C11E2E"/>
<path d="M507.006 302.374L518.234 301.091C518.716 301.091 519.036 301.252 519.197 301.733L522.244 310.555C522.565 311.357 522.084 312.159 521.282 312.479C521.122 312.479 521.122 312.479 520.961 312.479C516.951 312.961 513.262 313.121 508.29 313.763C502.355 314.404 503.959 315.046 497.062 316.008C492.891 316.489 491.608 311.838 493.372 311.517C501.392 309.592 501.874 307.026 504.761 303.657C505.242 302.855 506.044 302.374 507.006 302.374Z" fill="#263238"/>
<path d="M513.583 64.3406C513.583 62.2554 515.347 60.491 517.432 60.491L550.314 61.1326C558.334 61.293 565.552 65.7842 569.562 72.6814C577.101 86.3154 587.206 114.065 587.046 166.515H532.51C532.35 166.515 513.904 98.5058 513.583 64.3406Z" fill="#263238"/>
<path opacity="0.4" d="M514.385 77.4934C515.187 85.353 516.47 94.0146 518.074 102.837C526.254 85.5134 521.924 71.3982 521.924 71.3982L514.385 77.4934Z" fill="black"/>
<path d="M513.583 61.9347C509.733 66.4259 503.798 75.4083 485.834 108.13L458.245 114.065C458.245 114.065 455.197 116.631 456.48 123.047C456.48 123.047 485.994 128.18 492.089 125.453C498.184 122.726 513.583 99.4683 520.801 87.4383C523.688 82.4659 525.292 72.6815 516.47 62.2555C515.668 61.1327 514.385 60.9723 513.583 61.9347Z" fill="#263238"/>
<path d="M609.662 315.527L569.242 300.61L528.34 315.527C526.896 316.008 525.452 315.046 525.452 313.442C525.452 312.64 525.934 311.838 526.736 311.517L569.242 291.788L611.266 311.517C612.068 311.838 612.55 312.64 612.55 313.442C612.55 315.046 611.106 316.008 609.662 315.527Z" fill="#263238"/>
<path opacity="0.3" d="M609.662 315.527L569.242 300.61L528.34 315.527C526.896 316.008 525.452 315.046 525.452 313.442C525.452 312.64 525.934 311.838 526.736 311.517L569.242 291.788L611.266 311.517C612.068 311.838 612.55 312.64 612.55 313.442C612.55 315.046 611.106 316.008 609.662 315.527Z" fill="white"/>
<path opacity="0.2" d="M559.618 304.139L569.242 300.61L578.224 303.978V296.119L569.242 291.788L559.618 296.279V304.139Z" fill="black"/>
<path d="M568.921 315.848C566.996 315.848 565.552 314.404 565.392 312.64L564.269 300.61V201.162H573.733V300.61L572.61 312.64C572.449 314.404 570.845 315.848 568.921 315.848Z" fill="#263238"/>
<path opacity="0.3" d="M568.921 315.848C566.996 315.848 565.552 314.404 565.392 312.64L564.269 300.61V201.162H573.733V300.61L572.61 312.64C572.449 314.404 570.845 315.848 568.921 315.848Z" fill="white"/>
<path opacity="0.2" d="M573.733 201.162H564.269V212.711H573.733V201.162Z" fill="black"/>
<path d="M634.524 192.179C623.778 189.453 612.87 188.009 601.963 187.688C590.575 187.367 548.229 187.688 538.124 187.688C525.934 187.688 513.583 189.132 501.713 192.179C494.174 194.104 496.58 204.851 503.317 205.011C503.959 205.011 632.118 205.011 632.6 205.011C639.657 205.172 642.224 194.104 634.524 192.179Z" fill="#C11E2E"/>
<path opacity="0.3" d="M634.524 192.179C623.778 189.453 612.87 188.009 601.963 187.688C590.575 187.367 548.229 187.688 538.124 187.688C525.934 187.688 513.583 189.132 501.713 192.179C494.174 194.104 496.58 204.851 503.317 205.011C503.959 205.011 632.118 205.011 632.6 205.011C639.657 205.172 642.224 194.104 634.524 192.179Z" fill="black"/>
<path d="M505.242 204.691C526.735 199.237 549.512 199.237 571.166 204.691C579.347 206.776 582.715 194.104 574.695 192.019C550.956 185.924 525.613 185.924 501.873 192.019C493.533 194.265 497.061 206.776 505.242 204.691Z" fill="#C11E2E"/>
<g opacity="0.3">
<path d="M505.242 204.691C526.735 199.237 549.512 199.237 571.166 204.691C579.347 206.776 582.715 194.104 574.695 192.019C550.956 185.924 525.613 185.924 501.873 192.019C493.533 194.265 497.061 206.776 505.242 204.691Z" fill="white"/>
</g>
<path d="M600.359 98.6663C599.076 98.6663 597.632 99.3078 596.83 100.751C579.507 129.463 573.412 163.949 579.347 196.991C579.668 199.077 581.111 200.039 582.715 200.199C585.281 200.36 631.798 200.199 633.562 200.199C636.128 200.199 638.855 198.114 638.214 194.746C632.6 164.109 638.695 131.869 654.735 105.243C656.66 101.874 653.772 98.8267 650.885 98.8267C649.441 98.6663 603.246 98.6663 600.359 98.6663Z" fill="#C11E2E"/>
<path opacity="0.2" d="M600.359 98.6663C599.076 98.6663 597.632 99.3078 596.83 100.751C579.507 129.463 573.412 163.949 579.347 196.991C579.668 199.077 581.111 200.039 582.715 200.199C585.281 200.36 631.798 200.199 633.562 200.199C636.128 200.199 638.855 198.114 638.214 194.746C632.6 164.109 638.695 131.869 654.735 105.243C656.66 101.874 653.772 98.8267 650.885 98.8267C649.441 98.6663 603.246 98.6663 600.359 98.6663Z" fill="black"/>
<path d="M587.688 194.585C582.074 163.949 588.169 131.709 604.209 105.082C607.096 100.27 599.557 95.9394 596.67 100.751C579.347 129.463 573.252 163.949 579.186 196.991C580.309 202.445 588.65 200.199 587.688 194.585Z" fill="#C11E2E"/>
<g opacity="0.2">
<path d="M587.688 194.585C582.074 163.949 588.169 131.709 604.209 105.082C607.096 100.27 599.557 95.9394 596.67 100.751C579.347 129.463 573.252 163.949 579.186 196.991C580.309 202.445 588.65 200.199 587.688 194.585Z" fill="white"/>
</g>
</g>
<defs>
<clipPath id="clip0_126_6112">
<rect width="655" height="335" fill="white"/>
</clipPath>
</defs>
</svg>
