<svg width="394" height="233" viewBox="0 0 394 233" fill="none" xmlns="http://www.w3.org/2000/svg">
<rect x="0.520508" y="4.52051" width="20" height="20" fill="#158AC2"/>
<path d="M68.7939 15.8291H64.2354V13.9893H68.7939C69.6768 13.9893 70.3916 13.8486 70.9385 13.5674C71.4854 13.2861 71.8838 12.8955 72.1338 12.3955C72.3916 11.8955 72.5205 11.3252 72.5205 10.6846C72.5205 10.0986 72.3916 9.54785 72.1338 9.03223C71.8838 8.5166 71.4854 8.10254 70.9385 7.79004C70.3916 7.46973 69.6768 7.30957 68.7939 7.30957H64.7627V22.5205H62.501V5.45801H68.7939C70.083 5.45801 71.1729 5.68066 72.0635 6.12598C72.9541 6.57129 73.6299 7.18848 74.0908 7.97754C74.5518 8.75879 74.7822 9.65332 74.7822 10.6611C74.7822 11.7549 74.5518 12.6885 74.0908 13.4619C73.6299 14.2354 72.9541 14.8252 72.0635 15.2314C71.1729 15.6299 70.083 15.8291 68.7939 15.8291ZM79.4814 11.833V22.5205H77.3135V9.84082H79.4229L79.4814 11.833ZM83.4424 9.77051L83.4307 11.7861C83.251 11.7471 83.0791 11.7236 82.915 11.7158C82.7588 11.7002 82.5791 11.6924 82.376 11.6924C81.876 11.6924 81.4346 11.7705 81.0518 11.9268C80.6689 12.083 80.3447 12.3018 80.0791 12.583C79.8135 12.8643 79.6025 13.2002 79.4463 13.5908C79.2979 13.9736 79.2002 14.3955 79.1533 14.8564L78.5439 15.208C78.5439 14.4424 78.6182 13.7236 78.7666 13.0518C78.9229 12.3799 79.1611 11.7861 79.4814 11.2705C79.8018 10.7471 80.208 10.3408 80.7002 10.0518C81.2002 9.75488 81.7939 9.60645 82.4814 9.60645C82.6377 9.60645 82.8174 9.62598 83.0205 9.66504C83.2236 9.69629 83.3643 9.73145 83.4424 9.77051ZM90.4736 22.7549C89.5908 22.7549 88.79 22.6064 88.0713 22.3096C87.3604 22.0049 86.7471 21.5791 86.2314 21.0322C85.7236 20.4854 85.333 19.8369 85.0596 19.0869C84.7861 18.3369 84.6494 17.5166 84.6494 16.626V16.1338C84.6494 15.1025 84.8018 14.1846 85.1064 13.3799C85.4111 12.5674 85.8252 11.8799 86.3486 11.3174C86.8721 10.7549 87.4658 10.3291 88.1299 10.04C88.7939 9.75098 89.4814 9.60645 90.1924 9.60645C91.0986 9.60645 91.8799 9.7627 92.5361 10.0752C93.2002 10.3877 93.7432 10.8252 94.165 11.3877C94.5869 11.9424 94.8994 12.5986 95.1025 13.3564C95.3057 14.1064 95.4072 14.9268 95.4072 15.8174V16.79H85.9385V15.0205H93.2393V14.8564C93.208 14.2939 93.0908 13.7471 92.8877 13.2158C92.6924 12.6846 92.3799 12.2471 91.9502 11.9033C91.5205 11.5596 90.9346 11.3877 90.1924 11.3877C89.7002 11.3877 89.2471 11.4932 88.833 11.7041C88.4189 11.9072 88.0635 12.2119 87.7666 12.6182C87.4697 13.0244 87.2393 13.5205 87.0752 14.1064C86.9111 14.6924 86.8291 15.3682 86.8291 16.1338V16.626C86.8291 17.2275 86.9111 17.7939 87.0752 18.3252C87.2471 18.8486 87.4932 19.3096 87.8135 19.708C88.1416 20.1064 88.5361 20.4189 88.9971 20.6455C89.4658 20.8721 89.9971 20.9854 90.5908 20.9854C91.3564 20.9854 92.0049 20.8291 92.5361 20.5166C93.0674 20.2041 93.5322 19.7861 93.9307 19.2627L95.2432 20.3057C94.9697 20.7197 94.6221 21.1143 94.2002 21.4893C93.7783 21.8643 93.2588 22.1689 92.6416 22.4033C92.0322 22.6377 91.3096 22.7549 90.4736 22.7549ZM105.321 19.1572C105.321 18.8447 105.251 18.5557 105.11 18.29C104.978 18.0166 104.7 17.7705 104.278 17.5518C103.864 17.3252 103.239 17.1299 102.403 16.9658C101.7 16.8174 101.063 16.6416 100.493 16.4385C99.9307 16.2354 99.4502 15.9893 99.0518 15.7002C98.6611 15.4111 98.3604 15.0713 98.1494 14.6807C97.9385 14.29 97.833 13.833 97.833 13.3096C97.833 12.8096 97.9424 12.3369 98.1611 11.8916C98.3877 11.4463 98.7041 11.0518 99.1104 10.708C99.5244 10.3643 100.021 10.0947 100.599 9.89941C101.177 9.7041 101.821 9.60645 102.532 9.60645C103.548 9.60645 104.415 9.78613 105.134 10.1455C105.853 10.5049 106.403 10.9854 106.786 11.5869C107.169 12.1807 107.36 12.8408 107.36 13.5674H105.192C105.192 13.2158 105.087 12.876 104.876 12.5479C104.673 12.2119 104.372 11.9346 103.974 11.7158C103.583 11.4971 103.103 11.3877 102.532 11.3877C101.931 11.3877 101.442 11.4814 101.067 11.6689C100.7 11.8486 100.431 12.0791 100.259 12.3604C100.095 12.6416 100.013 12.9385 100.013 13.251C100.013 13.4854 100.052 13.6963 100.13 13.8838C100.216 14.0635 100.364 14.2314 100.575 14.3877C100.786 14.5361 101.083 14.6768 101.466 14.8096C101.849 14.9424 102.337 15.0752 102.931 15.208C103.97 15.4424 104.825 15.7236 105.497 16.0518C106.169 16.3799 106.669 16.7822 106.997 17.2588C107.325 17.7354 107.489 18.3135 107.489 18.9932C107.489 19.5479 107.372 20.0557 107.138 20.5166C106.911 20.9775 106.579 21.376 106.142 21.7119C105.712 22.04 105.196 22.2979 104.595 22.4854C104.001 22.665 103.333 22.7549 102.591 22.7549C101.474 22.7549 100.528 22.5557 99.7549 22.1572C98.9814 21.7588 98.3955 21.2432 97.9971 20.6104C97.5986 19.9775 97.3994 19.3096 97.3994 18.6064H99.5791C99.6104 19.2002 99.7822 19.6729 100.095 20.0244C100.407 20.3682 100.79 20.6143 101.243 20.7627C101.696 20.9033 102.146 20.9736 102.591 20.9736C103.185 20.9736 103.681 20.8955 104.079 20.7393C104.485 20.583 104.794 20.3682 105.005 20.0947C105.216 19.8213 105.321 19.5088 105.321 19.1572ZM117.813 20.3525V13.8252C117.813 13.3252 117.712 12.8916 117.509 12.5244C117.313 12.1494 117.017 11.8604 116.618 11.6572C116.22 11.4541 115.728 11.3525 115.142 11.3525C114.595 11.3525 114.114 11.4463 113.7 11.6338C113.294 11.8213 112.974 12.0674 112.739 12.3721C112.513 12.6768 112.399 13.0049 112.399 13.3564H110.231C110.231 12.9033 110.349 12.4541 110.583 12.0088C110.817 11.5635 111.153 11.1611 111.591 10.8018C112.036 10.4346 112.567 10.1455 113.185 9.93457C113.81 9.71582 114.505 9.60645 115.271 9.60645C116.192 9.60645 117.005 9.7627 117.708 10.0752C118.419 10.3877 118.974 10.8604 119.372 11.4932C119.778 12.1182 119.981 12.9033 119.981 13.8486V19.7549C119.981 20.1768 120.017 20.626 120.087 21.1025C120.165 21.5791 120.278 21.9893 120.427 22.333V22.5205H118.165C118.056 22.2705 117.97 21.9385 117.907 21.5244C117.845 21.1025 117.813 20.7119 117.813 20.3525ZM118.188 14.833L118.212 16.3564H116.021C115.403 16.3564 114.853 16.4072 114.368 16.5088C113.884 16.6025 113.478 16.7471 113.149 16.9424C112.821 17.1377 112.571 17.3838 112.399 17.6807C112.228 17.9697 112.142 18.3096 112.142 18.7002C112.142 19.0986 112.231 19.4619 112.411 19.79C112.591 20.1182 112.86 20.3799 113.22 20.5752C113.587 20.7627 114.036 20.8564 114.567 20.8564C115.231 20.8564 115.817 20.7158 116.325 20.4346C116.833 20.1533 117.235 19.8096 117.532 19.4033C117.837 18.9971 118.001 18.6025 118.024 18.2197L118.95 19.2627C118.896 19.5908 118.747 19.9541 118.505 20.3525C118.263 20.751 117.938 21.1338 117.532 21.501C117.134 21.8604 116.657 22.1611 116.103 22.4033C115.556 22.6377 114.938 22.7549 114.251 22.7549C113.392 22.7549 112.638 22.5869 111.989 22.251C111.349 21.915 110.849 21.4658 110.489 20.9033C110.138 20.333 109.962 19.6963 109.962 18.9932C109.962 18.3135 110.095 17.7158 110.36 17.2002C110.626 16.6768 111.009 16.2432 111.509 15.8994C112.009 15.5479 112.61 15.2822 113.313 15.1025C114.017 14.9229 114.802 14.833 115.669 14.833H118.188ZM125.747 4.52051V22.5205H123.567V4.52051H125.747ZM134.489 22.7549C133.606 22.7549 132.806 22.6064 132.087 22.3096C131.376 22.0049 130.763 21.5791 130.247 21.0322C129.739 20.4854 129.349 19.8369 129.075 19.0869C128.802 18.3369 128.665 17.5166 128.665 16.626V16.1338C128.665 15.1025 128.817 14.1846 129.122 13.3799C129.427 12.5674 129.841 11.8799 130.364 11.3174C130.888 10.7549 131.481 10.3291 132.146 10.04C132.81 9.75098 133.497 9.60645 134.208 9.60645C135.114 9.60645 135.896 9.7627 136.552 10.0752C137.216 10.3877 137.759 10.8252 138.181 11.3877C138.603 11.9424 138.915 12.5986 139.118 13.3564C139.321 14.1064 139.423 14.9268 139.423 15.8174V16.79H129.954V15.0205H137.255V14.8564C137.224 14.2939 137.106 13.7471 136.903 13.2158C136.708 12.6846 136.396 12.2471 135.966 11.9033C135.536 11.5596 134.95 11.3877 134.208 11.3877C133.716 11.3877 133.263 11.4932 132.849 11.7041C132.435 11.9072 132.079 12.2119 131.782 12.6182C131.485 13.0244 131.255 13.5205 131.091 14.1064C130.927 14.6924 130.845 15.3682 130.845 16.1338V16.626C130.845 17.2275 130.927 17.7939 131.091 18.3252C131.263 18.8486 131.509 19.3096 131.829 19.708C132.157 20.1064 132.552 20.4189 133.013 20.6455C133.481 20.8721 134.013 20.9854 134.606 20.9854C135.372 20.9854 136.021 20.8291 136.552 20.5166C137.083 20.2041 137.548 19.7861 137.946 19.2627L139.259 20.3057C138.985 20.7197 138.638 21.1143 138.216 21.4893C137.794 21.8643 137.274 22.1689 136.657 22.4033C136.048 22.6377 135.325 22.7549 134.489 22.7549ZM149.337 19.1572C149.337 18.8447 149.267 18.5557 149.126 18.29C148.993 18.0166 148.716 17.7705 148.294 17.5518C147.88 17.3252 147.255 17.1299 146.419 16.9658C145.716 16.8174 145.079 16.6416 144.509 16.4385C143.946 16.2354 143.466 15.9893 143.067 15.7002C142.677 15.4111 142.376 15.0713 142.165 14.6807C141.954 14.29 141.849 13.833 141.849 13.3096C141.849 12.8096 141.958 12.3369 142.177 11.8916C142.403 11.4463 142.72 11.0518 143.126 10.708C143.54 10.3643 144.036 10.0947 144.614 9.89941C145.192 9.7041 145.837 9.60645 146.548 9.60645C147.563 9.60645 148.431 9.78613 149.149 10.1455C149.868 10.5049 150.419 10.9854 150.802 11.5869C151.185 12.1807 151.376 12.8408 151.376 13.5674H149.208C149.208 13.2158 149.103 12.876 148.892 12.5479C148.688 12.2119 148.388 11.9346 147.989 11.7158C147.599 11.4971 147.118 11.3877 146.548 11.3877C145.946 11.3877 145.458 11.4814 145.083 11.6689C144.716 11.8486 144.446 12.0791 144.274 12.3604C144.11 12.6416 144.028 12.9385 144.028 13.251C144.028 13.4854 144.067 13.6963 144.146 13.8838C144.231 14.0635 144.38 14.2314 144.591 14.3877C144.802 14.5361 145.099 14.6768 145.481 14.8096C145.864 14.9424 146.353 15.0752 146.946 15.208C147.985 15.4424 148.841 15.7236 149.513 16.0518C150.185 16.3799 150.685 16.7822 151.013 17.2588C151.341 17.7354 151.505 18.3135 151.505 18.9932C151.505 19.5479 151.388 20.0557 151.153 20.5166C150.927 20.9775 150.595 21.376 150.157 21.7119C149.728 22.04 149.212 22.2979 148.61 22.4854C148.017 22.665 147.349 22.7549 146.606 22.7549C145.489 22.7549 144.544 22.5557 143.771 22.1572C142.997 21.7588 142.411 21.2432 142.013 20.6104C141.614 19.9775 141.415 19.3096 141.415 18.6064H143.595C143.626 19.2002 143.798 19.6729 144.11 20.0244C144.423 20.3682 144.806 20.6143 145.259 20.7627C145.712 20.9033 146.161 20.9736 146.606 20.9736C147.2 20.9736 147.696 20.8955 148.095 20.7393C148.501 20.583 148.81 20.3682 149.021 20.0947C149.231 19.8213 149.337 19.5088 149.337 19.1572ZM164.817 14.376V16.1572H159.099V14.376H164.817ZM175.399 14.3994L173.665 13.9541L174.521 5.45801H183.274V7.46191H176.36L175.845 12.1025C176.157 11.9229 176.552 11.7549 177.028 11.5986C177.513 11.4424 178.067 11.3643 178.692 11.3643C179.481 11.3643 180.188 11.501 180.813 11.7744C181.438 12.04 181.97 12.4229 182.407 12.9229C182.853 13.4229 183.192 14.0244 183.427 14.7275C183.661 15.4307 183.778 16.2158 183.778 17.083C183.778 17.9033 183.665 18.6572 183.438 19.3447C183.22 20.0322 182.888 20.6338 182.442 21.1494C181.997 21.6572 181.435 22.0518 180.755 22.333C180.083 22.6143 179.29 22.7549 178.376 22.7549C177.688 22.7549 177.036 22.6611 176.419 22.4736C175.81 22.2783 175.263 21.9854 174.778 21.5947C174.302 21.1963 173.911 20.7041 173.606 20.1182C173.31 19.5244 173.122 18.8291 173.044 18.0322H175.106C175.2 18.6729 175.388 19.2119 175.669 19.6494C175.95 20.0869 176.317 20.4189 176.771 20.6455C177.231 20.8643 177.767 20.9736 178.376 20.9736C178.892 20.9736 179.349 20.8838 179.747 20.7041C180.146 20.5244 180.481 20.2666 180.755 19.9307C181.028 19.5947 181.235 19.1885 181.376 18.7119C181.524 18.2354 181.599 17.7002 181.599 17.1064C181.599 16.5674 181.524 16.0674 181.376 15.6064C181.228 15.1455 181.005 14.7432 180.708 14.3994C180.419 14.0557 180.063 13.79 179.642 13.6025C179.22 13.4072 178.735 13.3096 178.188 13.3096C177.462 13.3096 176.911 13.4072 176.536 13.6025C176.169 13.7979 175.79 14.0635 175.399 14.3994ZM196.868 12.6299V15.2314C196.868 16.6299 196.743 17.8096 196.493 18.7705C196.243 19.7314 195.884 20.5049 195.415 21.0908C194.946 21.6768 194.38 22.1025 193.716 22.3682C193.06 22.626 192.317 22.7549 191.489 22.7549C190.833 22.7549 190.228 22.6729 189.673 22.5088C189.118 22.3447 188.618 22.083 188.173 21.7236C187.735 21.3564 187.36 20.8799 187.048 20.2939C186.735 19.708 186.497 18.9971 186.333 18.1611C186.169 17.3252 186.087 16.3486 186.087 15.2314V12.6299C186.087 11.2314 186.212 10.0596 186.462 9.11426C186.72 8.16895 187.083 7.41113 187.552 6.84082C188.021 6.2627 188.583 5.84863 189.239 5.59863C189.903 5.34863 190.646 5.22363 191.466 5.22363C192.13 5.22363 192.739 5.30566 193.294 5.46973C193.856 5.62598 194.356 5.87988 194.794 6.23145C195.231 6.5752 195.603 7.03613 195.907 7.61426C196.22 8.18457 196.458 8.88379 196.622 9.71191C196.786 10.54 196.868 11.5127 196.868 12.6299ZM194.688 15.583V12.2666C194.688 11.501 194.642 10.8291 194.548 10.251C194.462 9.66504 194.333 9.16504 194.161 8.75098C193.989 8.33691 193.771 8.00098 193.505 7.74316C193.247 7.48535 192.946 7.29785 192.603 7.18066C192.267 7.05566 191.888 6.99316 191.466 6.99316C190.95 6.99316 190.493 7.09082 190.095 7.28613C189.696 7.47363 189.36 7.77441 189.087 8.18848C188.821 8.60254 188.618 9.14551 188.478 9.81738C188.337 10.4893 188.267 11.3057 188.267 12.2666V15.583C188.267 16.3486 188.31 17.0244 188.396 17.6104C188.489 18.1963 188.626 18.7041 188.806 19.1338C188.985 19.5557 189.204 19.9033 189.462 20.1768C189.72 20.4502 190.017 20.6533 190.353 20.7861C190.696 20.9111 191.075 20.9736 191.489 20.9736C192.021 20.9736 192.485 20.8721 192.884 20.6689C193.282 20.4658 193.614 20.1494 193.88 19.7197C194.153 19.2822 194.356 18.7236 194.489 18.0439C194.622 17.3564 194.688 16.5361 194.688 15.583ZM199.47 9.6416V8.73926C199.47 8.09082 199.61 7.50098 199.892 6.96973C200.173 6.43848 200.575 6.0127 201.099 5.69238C201.622 5.37207 202.243 5.21191 202.962 5.21191C203.696 5.21191 204.321 5.37207 204.837 5.69238C205.36 6.0127 205.763 6.43848 206.044 6.96973C206.325 7.50098 206.466 8.09082 206.466 8.73926V9.6416C206.466 10.2744 206.325 10.8564 206.044 11.3877C205.771 11.9189 205.372 12.3447 204.849 12.665C204.333 12.9854 203.712 13.1455 202.985 13.1455C202.259 13.1455 201.63 12.9854 201.099 12.665C200.575 12.3447 200.173 11.9189 199.892 11.3877C199.61 10.8564 199.47 10.2744 199.47 9.6416ZM201.099 8.73926V9.6416C201.099 10.001 201.165 10.3408 201.298 10.6611C201.438 10.9814 201.649 11.2432 201.931 11.4463C202.212 11.6416 202.563 11.7393 202.985 11.7393C203.407 11.7393 203.755 11.6416 204.028 11.4463C204.302 11.2432 204.505 10.9814 204.638 10.6611C204.771 10.3408 204.837 10.001 204.837 9.6416V8.73926C204.837 8.37207 204.767 8.02832 204.626 7.70801C204.493 7.37988 204.286 7.11816 204.005 6.92285C203.731 6.71973 203.384 6.61816 202.962 6.61816C202.548 6.61816 202.2 6.71973 201.919 6.92285C201.646 7.11816 201.438 7.37988 201.298 7.70801C201.165 8.02832 201.099 8.37207 201.099 8.73926ZM207.778 19.251V18.3369C207.778 17.6963 207.919 17.1104 208.2 16.5791C208.481 16.0479 208.884 15.6221 209.407 15.3018C209.931 14.9814 210.552 14.8213 211.271 14.8213C212.005 14.8213 212.63 14.9814 213.146 15.3018C213.669 15.6221 214.071 16.0479 214.353 16.5791C214.634 17.1104 214.774 17.6963 214.774 18.3369V19.251C214.774 19.8916 214.634 20.4775 214.353 21.0088C214.079 21.54 213.681 21.9658 213.157 22.2861C212.642 22.6064 212.021 22.7666 211.294 22.7666C210.567 22.7666 209.942 22.6064 209.419 22.2861C208.896 21.9658 208.489 21.54 208.2 21.0088C207.919 20.4775 207.778 19.8916 207.778 19.251ZM209.407 18.3369V19.251C209.407 19.6104 209.474 19.9541 209.606 20.2822C209.747 20.6025 209.958 20.8643 210.239 21.0674C210.521 21.2627 210.872 21.3604 211.294 21.3604C211.716 21.3604 212.063 21.2627 212.337 21.0674C212.618 20.8643 212.825 20.6025 212.958 20.2822C213.091 19.9619 213.157 19.6182 213.157 19.251V18.3369C213.157 17.9697 213.087 17.626 212.946 17.3057C212.813 16.9854 212.606 16.7275 212.325 16.5322C212.052 16.3291 211.7 16.2275 211.271 16.2275C210.856 16.2275 210.509 16.3291 210.228 16.5322C209.954 16.7275 209.747 16.9854 209.606 17.3057C209.474 17.626 209.407 17.9697 209.407 18.3369ZM211.81 7.88379L203.478 21.2197L202.259 20.4463L210.591 7.11035L211.81 7.88379Z" fill="white"/>
<rect x="0.520508" y="72.5205" width="20" height="20" fill="#C21F32"/>
<path d="M72.8486 88.6807V90.5205H64.3174V88.6807H72.8486ZM64.7627 73.458V90.5205H62.501V73.458H64.7627ZM77.4658 77.8408V90.5205H75.2861V77.8408H77.4658ZM75.1221 74.4775C75.1221 74.126 75.2275 73.8291 75.4385 73.5869C75.6572 73.3447 75.9775 73.2236 76.3994 73.2236C76.8135 73.2236 77.1299 73.3447 77.3486 73.5869C77.5752 73.8291 77.6885 74.126 77.6885 74.4775C77.6885 74.8135 77.5752 75.1025 77.3486 75.3447C77.1299 75.5791 76.8135 75.6963 76.3994 75.6963C75.9775 75.6963 75.6572 75.5791 75.4385 75.3447C75.2275 75.1025 75.1221 74.8135 75.1221 74.4775ZM88.9268 95.3955V80.2783L89.1143 77.8408H91.1064V95.3955H88.9268ZM80.4072 84.3213V84.0752C80.4072 83.1064 80.5205 82.2275 80.7471 81.4385C80.9736 80.6416 81.3057 79.958 81.7432 79.3877C82.1807 78.8174 82.708 78.3799 83.3252 78.0752C83.9502 77.7627 84.6611 77.6064 85.458 77.6064C86.2549 77.6064 86.9541 77.7471 87.5557 78.0283C88.165 78.3018 88.6807 78.7041 89.1025 79.2354C89.5322 79.7588 89.8721 80.3916 90.1221 81.1338C90.3721 81.876 90.5439 82.7158 90.6377 83.6533V84.7314C90.5518 85.6611 90.3838 86.4971 90.1338 87.2393C89.8838 87.9814 89.5439 88.6143 89.1143 89.1377C88.6924 89.6611 88.1729 90.0635 87.5557 90.3447C86.9463 90.6182 86.2393 90.7549 85.4346 90.7549C84.6533 90.7549 83.9502 90.5947 83.3252 90.2744C82.708 89.9541 82.1807 89.5049 81.7432 88.9268C81.3135 88.3486 80.9814 87.6689 80.7471 86.8877C80.5205 86.0986 80.4072 85.2432 80.4072 84.3213ZM82.5869 84.0752V84.3213C82.5869 84.9541 82.6533 85.5518 82.7861 86.1143C82.9189 86.6689 83.1221 87.1611 83.3955 87.5908C83.6768 88.0205 84.0283 88.3604 84.4502 88.6104C84.8799 88.8525 85.3877 88.9736 85.9736 88.9736C86.6924 88.9736 87.29 88.8174 87.7666 88.5049C88.251 88.1924 88.6377 87.7822 88.9268 87.2744C89.2158 86.7588 89.4385 86.208 89.5947 85.6221V82.7979C89.5088 82.3682 89.3721 81.9502 89.1846 81.5439C89.0049 81.1377 88.7705 80.7744 88.4814 80.4541C88.1924 80.126 87.8408 79.8682 87.4268 79.6807C87.0205 79.4854 86.5439 79.3877 85.9971 79.3877C85.4033 79.3877 84.8916 79.5127 84.4619 79.7627C84.0322 80.0127 83.6768 80.3564 83.3955 80.7939C83.1221 81.2236 82.9189 81.7197 82.7861 82.2822C82.6533 82.8447 82.5869 83.4424 82.5869 84.0752ZM102.345 87.5908V77.8408H104.524V90.5205H102.45L102.345 87.5908ZM102.755 84.9189L103.657 84.8955C103.657 85.7393 103.567 86.5205 103.388 87.2393C103.216 87.9502 102.935 88.5674 102.544 89.0908C102.153 89.6143 101.642 90.0244 101.009 90.3213C100.376 90.6104 99.6064 90.7549 98.7002 90.7549C98.083 90.7549 97.5166 90.665 97.001 90.4854C96.4932 90.3057 96.0557 90.0283 95.6885 89.6533C95.3213 89.2783 95.0361 88.79 94.833 88.1885C94.6377 87.5869 94.54 86.8643 94.54 86.0205V77.8408H96.708V86.0439C96.708 86.6143 96.7705 87.0869 96.8955 87.4619C97.0283 87.8291 97.2041 88.1221 97.4229 88.3408C97.6494 88.5518 97.8994 88.7002 98.1729 88.7861C98.4541 88.8721 98.7432 88.915 99.04 88.915C99.9619 88.915 100.692 88.7393 101.231 88.3877C101.771 88.0283 102.157 87.5479 102.392 86.9463C102.634 86.3369 102.755 85.6611 102.755 84.9189ZM110.185 77.8408V90.5205H108.005V77.8408H110.185ZM107.841 74.4775C107.841 74.126 107.946 73.8291 108.157 73.5869C108.376 73.3447 108.696 73.2236 109.118 73.2236C109.532 73.2236 109.849 73.3447 110.067 73.5869C110.294 73.8291 110.407 74.126 110.407 74.4775C110.407 74.8135 110.294 75.1025 110.067 75.3447C109.849 75.5791 109.532 75.6963 109.118 75.6963C108.696 75.6963 108.376 75.5791 108.157 75.3447C107.946 75.1025 107.841 74.8135 107.841 74.4775ZM121.657 88.0596V72.5205H123.837V90.5205H121.845L121.657 88.0596ZM113.126 84.3213V84.0752C113.126 83.1064 113.243 82.2275 113.478 81.4385C113.72 80.6416 114.06 79.958 114.497 79.3877C114.942 78.8174 115.47 78.3799 116.079 78.0752C116.696 77.7627 117.384 77.6064 118.142 77.6064C118.938 77.6064 119.634 77.7471 120.228 78.0283C120.829 78.3018 121.337 78.7041 121.751 79.2354C122.173 79.7588 122.505 80.3916 122.747 81.1338C122.989 81.876 123.157 82.7158 123.251 83.6533V84.7314C123.165 85.6611 122.997 86.4971 122.747 87.2393C122.505 87.9814 122.173 88.6143 121.751 89.1377C121.337 89.6611 120.829 90.0635 120.228 90.3447C119.626 90.6182 118.923 90.7549 118.118 90.7549C117.376 90.7549 116.696 90.5947 116.079 90.2744C115.47 89.9541 114.942 89.5049 114.497 88.9268C114.06 88.3486 113.72 87.6689 113.478 86.8877C113.243 86.0986 113.126 85.2432 113.126 84.3213ZM115.306 84.0752V84.3213C115.306 84.9541 115.368 85.5479 115.493 86.1025C115.626 86.6572 115.829 87.1455 116.103 87.5674C116.376 87.9893 116.724 88.3213 117.146 88.5635C117.567 88.7979 118.071 88.915 118.657 88.915C119.376 88.915 119.966 88.7627 120.427 88.458C120.896 88.1533 121.271 87.751 121.552 87.251C121.833 86.751 122.052 86.208 122.208 85.6221V82.7979C122.114 82.3682 121.978 81.9541 121.798 81.5557C121.626 81.1494 121.399 80.79 121.118 80.4775C120.845 80.1572 120.505 79.9033 120.099 79.7158C119.7 79.5283 119.228 79.4346 118.681 79.4346C118.087 79.4346 117.575 79.5596 117.146 79.8096C116.724 80.0518 116.376 80.3877 116.103 80.8174C115.829 81.2393 115.626 81.7314 115.493 82.2939C115.368 82.8486 115.306 83.4424 115.306 84.0752ZM129.567 77.8408V90.5205H127.388V77.8408H129.567ZM127.224 74.4775C127.224 74.126 127.329 73.8291 127.54 73.5869C127.759 73.3447 128.079 73.2236 128.501 73.2236C128.915 73.2236 129.231 73.3447 129.45 73.5869C129.677 73.8291 129.79 74.126 129.79 74.4775C129.79 74.8135 129.677 75.1025 129.45 75.3447C129.231 75.5791 128.915 75.6963 128.501 75.6963C128.079 75.6963 127.759 75.5791 127.54 75.3447C127.329 75.1025 127.224 74.8135 127.224 74.4775ZM138.356 77.8408V79.5049H131.501V77.8408H138.356ZM133.821 74.7588H135.989V87.3799C135.989 87.8096 136.056 88.1338 136.188 88.3525C136.321 88.5713 136.493 88.7158 136.704 88.7861C136.915 88.8564 137.142 88.8916 137.384 88.8916C137.563 88.8916 137.751 88.876 137.946 88.8447C138.149 88.8057 138.302 88.7744 138.403 88.751L138.415 90.5205C138.243 90.5752 138.017 90.626 137.735 90.6729C137.462 90.7275 137.13 90.7549 136.739 90.7549C136.208 90.7549 135.72 90.6494 135.274 90.4385C134.829 90.2275 134.474 89.876 134.208 89.3838C133.95 88.8838 133.821 88.2119 133.821 87.3682V74.7588ZM144.462 89.208L147.989 77.8408H150.31L145.224 92.4775C145.106 92.79 144.95 93.126 144.755 93.4854C144.567 93.8525 144.325 94.2002 144.028 94.5283C143.731 94.8564 143.372 95.1221 142.95 95.3252C142.536 95.5361 142.04 95.6416 141.462 95.6416C141.29 95.6416 141.071 95.6182 140.806 95.5713C140.54 95.5244 140.353 95.4854 140.243 95.4541L140.231 93.6963C140.294 93.7041 140.392 93.7119 140.524 93.7197C140.665 93.7354 140.763 93.7432 140.817 93.7432C141.31 93.7432 141.728 93.6768 142.071 93.5439C142.415 93.4189 142.704 93.2041 142.938 92.8994C143.181 92.6025 143.388 92.1924 143.56 91.6689L144.462 89.208ZM141.872 77.8408L145.165 87.6846L145.728 89.9697L144.169 90.7666L139.505 77.8408H141.872ZM164.841 83.8291H160.282V81.9893H164.841C165.724 81.9893 166.438 81.8486 166.985 81.5674C167.532 81.2861 167.931 80.8955 168.181 80.3955C168.438 79.8955 168.567 79.3252 168.567 78.6846C168.567 78.0986 168.438 77.5479 168.181 77.0322C167.931 76.5166 167.532 76.1025 166.985 75.79C166.438 75.4697 165.724 75.3096 164.841 75.3096H160.81V90.5205H158.548V73.458H164.841C166.13 73.458 167.22 73.6807 168.11 74.126C169.001 74.5713 169.677 75.1885 170.138 75.9775C170.599 76.7588 170.829 77.6533 170.829 78.6611C170.829 79.7549 170.599 80.6885 170.138 81.4619C169.677 82.2354 169.001 82.8252 168.11 83.2314C167.22 83.6299 166.13 83.8291 164.841 83.8291ZM172.622 84.3213V84.0518C172.622 83.1377 172.755 82.29 173.021 81.5088C173.286 80.7197 173.669 80.0361 174.169 79.458C174.669 78.8721 175.274 78.4189 175.985 78.0986C176.696 77.7705 177.493 77.6064 178.376 77.6064C179.267 77.6064 180.067 77.7705 180.778 78.0986C181.497 78.4189 182.106 78.8721 182.606 79.458C183.114 80.0361 183.501 80.7197 183.767 81.5088C184.032 82.29 184.165 83.1377 184.165 84.0518V84.3213C184.165 85.2354 184.032 86.083 183.767 86.8643C183.501 87.6455 183.114 88.3291 182.606 88.915C182.106 89.4932 181.501 89.9463 180.79 90.2744C180.087 90.5947 179.29 90.7549 178.399 90.7549C177.509 90.7549 176.708 90.5947 175.997 90.2744C175.286 89.9463 174.677 89.4932 174.169 88.915C173.669 88.3291 173.286 87.6455 173.021 86.8643C172.755 86.083 172.622 85.2354 172.622 84.3213ZM174.79 84.0518V84.3213C174.79 84.9541 174.864 85.5518 175.013 86.1143C175.161 86.6689 175.384 87.1611 175.681 87.5908C175.985 88.0205 176.364 88.3604 176.817 88.6104C177.271 88.8525 177.798 88.9736 178.399 88.9736C178.993 88.9736 179.513 88.8525 179.958 88.6104C180.411 88.3604 180.786 88.0205 181.083 87.5908C181.38 87.1611 181.603 86.6689 181.751 86.1143C181.907 85.5518 181.985 84.9541 181.985 84.3213V84.0518C181.985 83.4268 181.907 82.8369 181.751 82.2822C181.603 81.7197 181.376 81.2236 181.071 80.7939C180.774 80.3564 180.399 80.0127 179.946 79.7627C179.501 79.5127 178.978 79.3877 178.376 79.3877C177.782 79.3877 177.259 79.5127 176.806 79.7627C176.36 80.0127 175.985 80.3564 175.681 80.7939C175.384 81.2236 175.161 81.7197 175.013 82.2822C174.864 82.8369 174.79 83.4268 174.79 84.0518ZM186.31 84.3213V84.0518C186.31 83.1377 186.442 82.29 186.708 81.5088C186.974 80.7197 187.356 80.0361 187.856 79.458C188.356 78.8721 188.962 78.4189 189.673 78.0986C190.384 77.7705 191.181 77.6064 192.063 77.6064C192.954 77.6064 193.755 77.7705 194.466 78.0986C195.185 78.4189 195.794 78.8721 196.294 79.458C196.802 80.0361 197.188 80.7197 197.454 81.5088C197.72 82.29 197.853 83.1377 197.853 84.0518V84.3213C197.853 85.2354 197.72 86.083 197.454 86.8643C197.188 87.6455 196.802 88.3291 196.294 88.915C195.794 89.4932 195.188 89.9463 194.478 90.2744C193.774 90.5947 192.978 90.7549 192.087 90.7549C191.196 90.7549 190.396 90.5947 189.685 90.2744C188.974 89.9463 188.364 89.4932 187.856 88.915C187.356 88.3291 186.974 87.6455 186.708 86.8643C186.442 86.083 186.31 85.2354 186.31 84.3213ZM188.478 84.0518V84.3213C188.478 84.9541 188.552 85.5518 188.7 86.1143C188.849 86.6689 189.071 87.1611 189.368 87.5908C189.673 88.0205 190.052 88.3604 190.505 88.6104C190.958 88.8525 191.485 88.9736 192.087 88.9736C192.681 88.9736 193.2 88.8525 193.646 88.6104C194.099 88.3604 194.474 88.0205 194.771 87.5908C195.067 87.1611 195.29 86.6689 195.438 86.1143C195.595 85.5518 195.673 84.9541 195.673 84.3213V84.0518C195.673 83.4268 195.595 82.8369 195.438 82.2822C195.29 81.7197 195.063 81.2236 194.759 80.7939C194.462 80.3564 194.087 80.0127 193.634 79.7627C193.188 79.5127 192.665 79.3877 192.063 79.3877C191.47 79.3877 190.946 79.5127 190.493 79.7627C190.048 80.0127 189.673 80.3564 189.368 80.7939C189.071 81.2236 188.849 81.7197 188.7 82.2822C188.552 82.8369 188.478 83.4268 188.478 84.0518ZM202.927 72.5205V90.5205H200.747V72.5205H202.927ZM216.872 82.376V84.1572H211.153V82.376H216.872ZM231.837 73.3643V90.5205H229.669V76.0713L225.298 77.665V75.708L231.497 73.3643H231.837ZM240.954 82.3994L239.22 81.9541L240.075 73.458H248.829V75.4619H241.915L241.399 80.1025C241.712 79.9229 242.106 79.7549 242.583 79.5986C243.067 79.4424 243.622 79.3643 244.247 79.3643C245.036 79.3643 245.743 79.501 246.368 79.7744C246.993 80.04 247.524 80.4229 247.962 80.9229C248.407 81.4229 248.747 82.0244 248.981 82.7275C249.216 83.4307 249.333 84.2158 249.333 85.083C249.333 85.9033 249.22 86.6572 248.993 87.3447C248.774 88.0322 248.442 88.6338 247.997 89.1494C247.552 89.6572 246.989 90.0518 246.31 90.333C245.638 90.6143 244.845 90.7549 243.931 90.7549C243.243 90.7549 242.591 90.6611 241.974 90.4736C241.364 90.2783 240.817 89.9854 240.333 89.5947C239.856 89.1963 239.466 88.7041 239.161 88.1182C238.864 87.5244 238.677 86.8291 238.599 86.0322H240.661C240.755 86.6729 240.942 87.2119 241.224 87.6494C241.505 88.0869 241.872 88.4189 242.325 88.6455C242.786 88.8643 243.321 88.9736 243.931 88.9736C244.446 88.9736 244.903 88.8838 245.302 88.7041C245.7 88.5244 246.036 88.2666 246.31 87.9307C246.583 87.5947 246.79 87.1885 246.931 86.7119C247.079 86.2354 247.153 85.7002 247.153 85.1064C247.153 84.5674 247.079 84.0674 246.931 83.6064C246.782 83.1455 246.56 82.7432 246.263 82.3994C245.974 82.0557 245.618 81.79 245.196 81.6025C244.774 81.4072 244.29 81.3096 243.743 81.3096C243.017 81.3096 242.466 81.4072 242.091 81.6025C241.724 81.7979 241.345 82.0635 240.954 82.3994ZM251.524 77.6416V76.7393C251.524 76.0908 251.665 75.501 251.946 74.9697C252.228 74.4385 252.63 74.0127 253.153 73.6924C253.677 73.3721 254.298 73.2119 255.017 73.2119C255.751 73.2119 256.376 73.3721 256.892 73.6924C257.415 74.0127 257.817 74.4385 258.099 74.9697C258.38 75.501 258.521 76.0908 258.521 76.7393V77.6416C258.521 78.2744 258.38 78.8564 258.099 79.3877C257.825 79.9189 257.427 80.3447 256.903 80.665C256.388 80.9854 255.767 81.1455 255.04 81.1455C254.313 81.1455 253.685 80.9854 253.153 80.665C252.63 80.3447 252.228 79.9189 251.946 79.3877C251.665 78.8564 251.524 78.2744 251.524 77.6416ZM253.153 76.7393V77.6416C253.153 78.001 253.22 78.3408 253.353 78.6611C253.493 78.9814 253.704 79.2432 253.985 79.4463C254.267 79.6416 254.618 79.7393 255.04 79.7393C255.462 79.7393 255.81 79.6416 256.083 79.4463C256.356 79.2432 256.56 78.9814 256.692 78.6611C256.825 78.3408 256.892 78.001 256.892 77.6416V76.7393C256.892 76.3721 256.821 76.0283 256.681 75.708C256.548 75.3799 256.341 75.1182 256.06 74.9229C255.786 74.7197 255.438 74.6182 255.017 74.6182C254.603 74.6182 254.255 74.7197 253.974 74.9229C253.7 75.1182 253.493 75.3799 253.353 75.708C253.22 76.0283 253.153 76.3721 253.153 76.7393ZM259.833 87.251V86.3369C259.833 85.6963 259.974 85.1104 260.255 84.5791C260.536 84.0479 260.938 83.6221 261.462 83.3018C261.985 82.9814 262.606 82.8213 263.325 82.8213C264.06 82.8213 264.685 82.9814 265.2 83.3018C265.724 83.6221 266.126 84.0479 266.407 84.5791C266.688 85.1104 266.829 85.6963 266.829 86.3369V87.251C266.829 87.8916 266.688 88.4775 266.407 89.0088C266.134 89.54 265.735 89.9658 265.212 90.2861C264.696 90.6064 264.075 90.7666 263.349 90.7666C262.622 90.7666 261.997 90.6064 261.474 90.2861C260.95 89.9658 260.544 89.54 260.255 89.0088C259.974 88.4775 259.833 87.8916 259.833 87.251ZM261.462 86.3369V87.251C261.462 87.6104 261.528 87.9541 261.661 88.2822C261.802 88.6025 262.013 88.8643 262.294 89.0674C262.575 89.2627 262.927 89.3604 263.349 89.3604C263.771 89.3604 264.118 89.2627 264.392 89.0674C264.673 88.8643 264.88 88.6025 265.013 88.2822C265.146 87.9619 265.212 87.6182 265.212 87.251V86.3369C265.212 85.9697 265.142 85.626 265.001 85.3057C264.868 84.9854 264.661 84.7275 264.38 84.5322C264.106 84.3291 263.755 84.2275 263.325 84.2275C262.911 84.2275 262.563 84.3291 262.282 84.5322C262.009 84.7275 261.802 84.9854 261.661 85.3057C261.528 85.626 261.462 85.9697 261.462 86.3369ZM263.864 75.8838L255.532 89.2197L254.313 88.4463L262.646 75.1104L263.864 75.8838Z" fill="white"/>
<rect x="0.520508" y="140.521" width="20" height="20" fill="#02C22C"/>
<path d="M68.8174 142.97L63.1689 158.521H60.8604L67.3643 141.458H68.8525L68.8174 142.97ZM73.5518 158.521L67.8916 142.97L67.8564 141.458H69.3447L75.8721 158.521H73.5518ZM73.2588 152.204V154.056H63.6729V152.204H73.2588ZM80.1846 145.841V158.521H78.0049V145.841H80.1846ZM77.8408 142.478C77.8408 142.126 77.9463 141.829 78.1572 141.587C78.376 141.345 78.6963 141.224 79.1182 141.224C79.5322 141.224 79.8486 141.345 80.0674 141.587C80.2939 141.829 80.4072 142.126 80.4072 142.478C80.4072 142.813 80.2939 143.103 80.0674 143.345C79.8486 143.579 79.5322 143.696 79.1182 143.696C78.6963 143.696 78.376 143.579 78.1572 143.345C77.9463 143.103 77.8408 142.813 77.8408 142.478ZM85.833 147.833V158.521H83.665V145.841H85.7744L85.833 147.833ZM89.7939 145.771L89.7822 147.786C89.6025 147.747 89.4307 147.724 89.2666 147.716C89.1104 147.7 88.9307 147.692 88.7275 147.692C88.2275 147.692 87.7861 147.771 87.4033 147.927C87.0205 148.083 86.6963 148.302 86.4307 148.583C86.165 148.864 85.9541 149.2 85.7979 149.591C85.6494 149.974 85.5518 150.396 85.5049 150.856L84.8955 151.208C84.8955 150.442 84.9697 149.724 85.1182 149.052C85.2744 148.38 85.5127 147.786 85.833 147.271C86.1533 146.747 86.5596 146.341 87.0518 146.052C87.5518 145.755 88.1455 145.606 88.833 145.606C88.9893 145.606 89.1689 145.626 89.3721 145.665C89.5752 145.696 89.7158 145.731 89.7939 145.771ZM99.5557 156.06V140.521H101.735V158.521H99.7432L99.5557 156.06ZM91.0244 152.321V152.075C91.0244 151.106 91.1416 150.228 91.376 149.438C91.6182 148.642 91.958 147.958 92.3955 147.388C92.8408 146.817 93.3682 146.38 93.9775 146.075C94.5947 145.763 95.2822 145.606 96.04 145.606C96.8369 145.606 97.5322 145.747 98.126 146.028C98.7275 146.302 99.2354 146.704 99.6494 147.235C100.071 147.759 100.403 148.392 100.646 149.134C100.888 149.876 101.056 150.716 101.149 151.653V152.731C101.063 153.661 100.896 154.497 100.646 155.239C100.403 155.981 100.071 156.614 99.6494 157.138C99.2354 157.661 98.7275 158.063 98.126 158.345C97.5244 158.618 96.8213 158.755 96.0166 158.755C95.2744 158.755 94.5947 158.595 93.9775 158.274C93.3682 157.954 92.8408 157.505 92.3955 156.927C91.958 156.349 91.6182 155.669 91.376 154.888C91.1416 154.099 91.0244 153.243 91.0244 152.321ZM93.2041 152.075V152.321C93.2041 152.954 93.2666 153.548 93.3916 154.103C93.5244 154.657 93.7275 155.146 94.001 155.567C94.2744 155.989 94.6221 156.321 95.0439 156.563C95.4658 156.798 95.9697 156.915 96.5557 156.915C97.2744 156.915 97.8643 156.763 98.3252 156.458C98.7939 156.153 99.1689 155.751 99.4502 155.251C99.7314 154.751 99.9502 154.208 100.106 153.622V150.798C100.013 150.368 99.876 149.954 99.6963 149.556C99.5244 149.149 99.2979 148.79 99.0166 148.478C98.7432 148.157 98.4033 147.903 97.9971 147.716C97.5986 147.528 97.126 147.435 96.5791 147.435C95.9854 147.435 95.4736 147.56 95.0439 147.81C94.6221 148.052 94.2744 148.388 94.001 148.817C93.7275 149.239 93.5244 149.731 93.3916 150.294C93.2666 150.849 93.2041 151.442 93.2041 152.075ZM107.278 147.833V158.521H105.11V145.841H107.22L107.278 147.833ZM111.239 145.771L111.228 147.786C111.048 147.747 110.876 147.724 110.712 147.716C110.556 147.7 110.376 147.692 110.173 147.692C109.673 147.692 109.231 147.771 108.849 147.927C108.466 148.083 108.142 148.302 107.876 148.583C107.61 148.864 107.399 149.2 107.243 149.591C107.095 149.974 106.997 150.396 106.95 150.856L106.341 151.208C106.341 150.442 106.415 149.724 106.563 149.052C106.72 148.38 106.958 147.786 107.278 147.271C107.599 146.747 108.005 146.341 108.497 146.052C108.997 145.755 109.591 145.606 110.278 145.606C110.435 145.606 110.614 145.626 110.817 145.665C111.021 145.696 111.161 145.731 111.239 145.771ZM112.435 152.321V152.052C112.435 151.138 112.567 150.29 112.833 149.509C113.099 148.72 113.481 148.036 113.981 147.458C114.481 146.872 115.087 146.419 115.798 146.099C116.509 145.771 117.306 145.606 118.188 145.606C119.079 145.606 119.88 145.771 120.591 146.099C121.31 146.419 121.919 146.872 122.419 147.458C122.927 148.036 123.313 148.72 123.579 149.509C123.845 150.29 123.978 151.138 123.978 152.052V152.321C123.978 153.235 123.845 154.083 123.579 154.864C123.313 155.646 122.927 156.329 122.419 156.915C121.919 157.493 121.313 157.946 120.603 158.274C119.899 158.595 119.103 158.755 118.212 158.755C117.321 158.755 116.521 158.595 115.81 158.274C115.099 157.946 114.489 157.493 113.981 156.915C113.481 156.329 113.099 155.646 112.833 154.864C112.567 154.083 112.435 153.235 112.435 152.321ZM114.603 152.052V152.321C114.603 152.954 114.677 153.552 114.825 154.114C114.974 154.669 115.196 155.161 115.493 155.591C115.798 156.021 116.177 156.36 116.63 156.61C117.083 156.853 117.61 156.974 118.212 156.974C118.806 156.974 119.325 156.853 119.771 156.61C120.224 156.36 120.599 156.021 120.896 155.591C121.192 155.161 121.415 154.669 121.563 154.114C121.72 153.552 121.798 152.954 121.798 152.321V152.052C121.798 151.427 121.72 150.837 121.563 150.282C121.415 149.72 121.188 149.224 120.884 148.794C120.587 148.356 120.212 148.013 119.759 147.763C119.313 147.513 118.79 147.388 118.188 147.388C117.595 147.388 117.071 147.513 116.618 147.763C116.173 148.013 115.798 148.356 115.493 148.794C115.196 149.224 114.974 149.72 114.825 150.282C114.677 150.837 114.603 151.427 114.603 152.052ZM128.864 148.278V163.396H126.685V145.841H128.677L128.864 148.278ZM137.407 152.075V152.321C137.407 153.243 137.298 154.099 137.079 154.888C136.86 155.669 136.54 156.349 136.118 156.927C135.704 157.505 135.192 157.954 134.583 158.274C133.974 158.595 133.274 158.755 132.485 158.755C131.681 158.755 130.97 158.622 130.353 158.356C129.735 158.091 129.212 157.704 128.782 157.196C128.353 156.688 128.009 156.079 127.751 155.368C127.501 154.657 127.329 153.856 127.235 152.966V151.653C127.329 150.716 127.505 149.876 127.763 149.134C128.021 148.392 128.36 147.759 128.782 147.235C129.212 146.704 129.731 146.302 130.341 146.028C130.95 145.747 131.653 145.606 132.45 145.606C133.247 145.606 133.954 145.763 134.571 146.075C135.188 146.38 135.708 146.817 136.13 147.388C136.552 147.958 136.868 148.642 137.079 149.438C137.298 150.228 137.407 151.106 137.407 152.075ZM135.228 152.321V152.075C135.228 151.442 135.161 150.849 135.028 150.294C134.896 149.731 134.688 149.239 134.407 148.817C134.134 148.388 133.782 148.052 133.353 147.81C132.923 147.56 132.411 147.435 131.817 147.435C131.271 147.435 130.794 147.528 130.388 147.716C129.989 147.903 129.649 148.157 129.368 148.478C129.087 148.79 128.856 149.149 128.677 149.556C128.505 149.954 128.376 150.368 128.29 150.798V153.833C128.446 154.38 128.665 154.896 128.946 155.38C129.228 155.856 129.603 156.243 130.071 156.54C130.54 156.829 131.13 156.974 131.841 156.974C132.427 156.974 132.931 156.853 133.353 156.61C133.782 156.36 134.134 156.021 134.407 155.591C134.688 155.161 134.896 154.669 135.028 154.114C135.161 153.552 135.228 152.954 135.228 152.321ZM150.638 150.376V152.157H144.919V150.376H150.638ZM169.657 156.739V158.521H158.489V156.962L164.079 150.739C164.767 149.974 165.298 149.325 165.673 148.794C166.056 148.255 166.321 147.774 166.47 147.353C166.626 146.923 166.704 146.485 166.704 146.04C166.704 145.478 166.587 144.97 166.353 144.517C166.126 144.056 165.79 143.688 165.345 143.415C164.899 143.142 164.36 143.005 163.728 143.005C162.97 143.005 162.337 143.153 161.829 143.45C161.329 143.739 160.954 144.146 160.704 144.669C160.454 145.192 160.329 145.794 160.329 146.474H158.161C158.161 145.513 158.372 144.634 158.794 143.837C159.216 143.04 159.841 142.407 160.669 141.938C161.497 141.462 162.517 141.224 163.728 141.224C164.806 141.224 165.728 141.415 166.493 141.798C167.259 142.173 167.845 142.704 168.251 143.392C168.665 144.071 168.872 144.868 168.872 145.782C168.872 146.282 168.786 146.79 168.614 147.306C168.45 147.813 168.22 148.321 167.923 148.829C167.634 149.337 167.294 149.837 166.903 150.329C166.521 150.821 166.11 151.306 165.673 151.782L161.103 156.739H169.657ZM174.72 150.399L172.985 149.954L173.841 141.458H182.595V143.462H175.681L175.165 148.103C175.478 147.923 175.872 147.755 176.349 147.599C176.833 147.442 177.388 147.364 178.013 147.364C178.802 147.364 179.509 147.501 180.134 147.774C180.759 148.04 181.29 148.423 181.728 148.923C182.173 149.423 182.513 150.024 182.747 150.728C182.981 151.431 183.099 152.216 183.099 153.083C183.099 153.903 182.985 154.657 182.759 155.345C182.54 156.032 182.208 156.634 181.763 157.149C181.317 157.657 180.755 158.052 180.075 158.333C179.403 158.614 178.61 158.755 177.696 158.755C177.009 158.755 176.356 158.661 175.739 158.474C175.13 158.278 174.583 157.985 174.099 157.595C173.622 157.196 173.231 156.704 172.927 156.118C172.63 155.524 172.442 154.829 172.364 154.032H174.427C174.521 154.673 174.708 155.212 174.989 155.649C175.271 156.087 175.638 156.419 176.091 156.646C176.552 156.864 177.087 156.974 177.696 156.974C178.212 156.974 178.669 156.884 179.067 156.704C179.466 156.524 179.802 156.267 180.075 155.931C180.349 155.595 180.556 155.188 180.696 154.712C180.845 154.235 180.919 153.7 180.919 153.106C180.919 152.567 180.845 152.067 180.696 151.606C180.548 151.146 180.325 150.743 180.028 150.399C179.739 150.056 179.384 149.79 178.962 149.603C178.54 149.407 178.056 149.31 177.509 149.31C176.782 149.31 176.231 149.407 175.856 149.603C175.489 149.798 175.11 150.063 174.72 150.399ZM185.29 145.642V144.739C185.29 144.091 185.431 143.501 185.712 142.97C185.993 142.438 186.396 142.013 186.919 141.692C187.442 141.372 188.063 141.212 188.782 141.212C189.517 141.212 190.142 141.372 190.657 141.692C191.181 142.013 191.583 142.438 191.864 142.97C192.146 143.501 192.286 144.091 192.286 144.739V145.642C192.286 146.274 192.146 146.856 191.864 147.388C191.591 147.919 191.192 148.345 190.669 148.665C190.153 148.985 189.532 149.146 188.806 149.146C188.079 149.146 187.45 148.985 186.919 148.665C186.396 148.345 185.993 147.919 185.712 147.388C185.431 146.856 185.29 146.274 185.29 145.642ZM186.919 144.739V145.642C186.919 146.001 186.985 146.341 187.118 146.661C187.259 146.981 187.47 147.243 187.751 147.446C188.032 147.642 188.384 147.739 188.806 147.739C189.228 147.739 189.575 147.642 189.849 147.446C190.122 147.243 190.325 146.981 190.458 146.661C190.591 146.341 190.657 146.001 190.657 145.642V144.739C190.657 144.372 190.587 144.028 190.446 143.708C190.313 143.38 190.106 143.118 189.825 142.923C189.552 142.72 189.204 142.618 188.782 142.618C188.368 142.618 188.021 142.72 187.739 142.923C187.466 143.118 187.259 143.38 187.118 143.708C186.985 144.028 186.919 144.372 186.919 144.739ZM193.599 155.251V154.337C193.599 153.696 193.739 153.11 194.021 152.579C194.302 152.048 194.704 151.622 195.228 151.302C195.751 150.981 196.372 150.821 197.091 150.821C197.825 150.821 198.45 150.981 198.966 151.302C199.489 151.622 199.892 152.048 200.173 152.579C200.454 153.11 200.595 153.696 200.595 154.337V155.251C200.595 155.892 200.454 156.478 200.173 157.009C199.899 157.54 199.501 157.966 198.978 158.286C198.462 158.606 197.841 158.767 197.114 158.767C196.388 158.767 195.763 158.606 195.239 158.286C194.716 157.966 194.31 157.54 194.021 157.009C193.739 156.478 193.599 155.892 193.599 155.251ZM195.228 154.337V155.251C195.228 155.61 195.294 155.954 195.427 156.282C195.567 156.603 195.778 156.864 196.06 157.067C196.341 157.263 196.692 157.36 197.114 157.36C197.536 157.36 197.884 157.263 198.157 157.067C198.438 156.864 198.646 156.603 198.778 156.282C198.911 155.962 198.978 155.618 198.978 155.251V154.337C198.978 153.97 198.907 153.626 198.767 153.306C198.634 152.985 198.427 152.728 198.146 152.532C197.872 152.329 197.521 152.228 197.091 152.228C196.677 152.228 196.329 152.329 196.048 152.532C195.774 152.728 195.567 152.985 195.427 153.306C195.294 153.626 195.228 153.97 195.228 154.337ZM197.63 143.884L189.298 157.22L188.079 156.446L196.411 143.11L197.63 143.884Z" fill="white"/>
<rect x="0.520508" y="208.521" width="20" height="20" fill="#C2781F"/>
<path d="M72.8018 221.095H75.0518C74.9346 222.173 74.626 223.138 74.126 223.989C73.626 224.841 72.9189 225.517 72.0049 226.017C71.0908 226.509 69.9502 226.755 68.583 226.755C67.583 226.755 66.6729 226.567 65.8525 226.192C65.04 225.817 64.3408 225.286 63.7549 224.599C63.1689 223.903 62.7158 223.071 62.3955 222.103C62.083 221.126 61.9268 220.04 61.9268 218.845V217.146C61.9268 215.95 62.083 214.868 62.3955 213.899C62.7158 212.923 63.1729 212.087 63.7666 211.392C64.3682 210.696 65.0908 210.161 65.9346 209.786C66.7783 209.411 67.7275 209.224 68.7822 209.224C70.0713 209.224 71.1611 209.466 72.0518 209.95C72.9424 210.435 73.6338 211.106 74.126 211.966C74.626 212.817 74.9346 213.806 75.0518 214.931H72.8018C72.6924 214.134 72.4893 213.45 72.1924 212.88C71.8955 212.302 71.4736 211.856 70.9268 211.544C70.3799 211.231 69.665 211.075 68.7822 211.075C68.0244 211.075 67.3564 211.22 66.7783 211.509C66.208 211.798 65.7275 212.208 65.3369 212.739C64.9541 213.271 64.665 213.907 64.4697 214.649C64.2744 215.392 64.1768 216.216 64.1768 217.122V218.845C64.1768 219.681 64.2627 220.466 64.4346 221.2C64.6143 221.935 64.8838 222.579 65.2432 223.134C65.6025 223.688 66.0596 224.126 66.6143 224.446C67.1689 224.759 67.8252 224.915 68.583 224.915C69.5439 224.915 70.3096 224.763 70.8799 224.458C71.4502 224.153 71.8799 223.716 72.1689 223.146C72.4658 222.575 72.6768 221.892 72.8018 221.095ZM77.2314 220.321V220.052C77.2314 219.138 77.3643 218.29 77.6299 217.509C77.8955 216.72 78.2783 216.036 78.7783 215.458C79.2783 214.872 79.8838 214.419 80.5947 214.099C81.3057 213.771 82.1025 213.606 82.9854 213.606C83.876 213.606 84.6768 213.771 85.3877 214.099C86.1064 214.419 86.7158 214.872 87.2158 215.458C87.7236 216.036 88.1104 216.72 88.376 217.509C88.6416 218.29 88.7744 219.138 88.7744 220.052V220.321C88.7744 221.235 88.6416 222.083 88.376 222.864C88.1104 223.646 87.7236 224.329 87.2158 224.915C86.7158 225.493 86.1104 225.946 85.3994 226.274C84.6963 226.595 83.8994 226.755 83.0088 226.755C82.1182 226.755 81.3174 226.595 80.6064 226.274C79.8955 225.946 79.2861 225.493 78.7783 224.915C78.2783 224.329 77.8955 223.646 77.6299 222.864C77.3643 222.083 77.2314 221.235 77.2314 220.321ZM79.3994 220.052V220.321C79.3994 220.954 79.4736 221.552 79.6221 222.114C79.7705 222.669 79.9932 223.161 80.29 223.591C80.5947 224.021 80.9736 224.36 81.4268 224.61C81.8799 224.853 82.4072 224.974 83.0088 224.974C83.6025 224.974 84.1221 224.853 84.5674 224.61C85.0205 224.36 85.3955 224.021 85.6924 223.591C85.9893 223.161 86.2119 222.669 86.3604 222.114C86.5166 221.552 86.5947 220.954 86.5947 220.321V220.052C86.5947 219.427 86.5166 218.837 86.3604 218.282C86.2119 217.72 85.9854 217.224 85.6807 216.794C85.3838 216.356 85.0088 216.013 84.5557 215.763C84.1104 215.513 83.5869 215.388 82.9854 215.388C82.3916 215.388 81.8682 215.513 81.415 215.763C80.9697 216.013 80.5947 216.356 80.29 216.794C79.9932 217.224 79.7705 217.72 79.6221 218.282C79.4736 218.837 79.3994 219.427 79.3994 220.052ZM93.6494 216.36V226.521H91.4697V213.841H93.5322L93.6494 216.36ZM93.2041 219.7L92.1963 219.665C92.2041 218.798 92.3174 217.997 92.5361 217.263C92.7549 216.521 93.0791 215.876 93.5088 215.329C93.9385 214.782 94.4736 214.36 95.1143 214.063C95.7549 213.759 96.4971 213.606 97.3408 213.606C97.9346 213.606 98.4814 213.692 98.9814 213.864C99.4814 214.028 99.915 214.29 100.282 214.649C100.649 215.009 100.935 215.47 101.138 216.032C101.341 216.595 101.442 217.274 101.442 218.071V226.521H99.2744V218.177C99.2744 217.513 99.1611 216.981 98.9346 216.583C98.7158 216.185 98.4033 215.896 97.9971 215.716C97.5908 215.528 97.1143 215.435 96.5674 215.435C95.9268 215.435 95.3916 215.548 94.9619 215.774C94.5322 216.001 94.1885 216.313 93.9307 216.712C93.6729 217.11 93.4854 217.567 93.3682 218.083C93.2588 218.591 93.2041 219.13 93.2041 219.7ZM101.419 218.505L99.9658 218.95C99.9736 218.255 100.087 217.587 100.306 216.946C100.532 216.306 100.856 215.735 101.278 215.235C101.708 214.735 102.235 214.341 102.86 214.052C103.485 213.755 104.2 213.606 105.005 213.606C105.685 213.606 106.286 213.696 106.81 213.876C107.341 214.056 107.786 214.333 108.146 214.708C108.513 215.075 108.79 215.548 108.978 216.126C109.165 216.704 109.259 217.392 109.259 218.188V226.521H107.079V218.165C107.079 217.454 106.966 216.903 106.739 216.513C106.521 216.114 106.208 215.837 105.802 215.681C105.403 215.517 104.927 215.435 104.372 215.435C103.896 215.435 103.474 215.517 103.106 215.681C102.739 215.845 102.431 216.071 102.181 216.36C101.931 216.642 101.739 216.966 101.606 217.333C101.481 217.7 101.419 218.091 101.419 218.505ZM114.696 216.36V226.521H112.517V213.841H114.579L114.696 216.36ZM114.251 219.7L113.243 219.665C113.251 218.798 113.364 217.997 113.583 217.263C113.802 216.521 114.126 215.876 114.556 215.329C114.985 214.782 115.521 214.36 116.161 214.063C116.802 213.759 117.544 213.606 118.388 213.606C118.981 213.606 119.528 213.692 120.028 213.864C120.528 214.028 120.962 214.29 121.329 214.649C121.696 215.009 121.981 215.47 122.185 216.032C122.388 216.595 122.489 217.274 122.489 218.071V226.521H120.321V218.177C120.321 217.513 120.208 216.981 119.981 216.583C119.763 216.185 119.45 215.896 119.044 215.716C118.638 215.528 118.161 215.435 117.614 215.435C116.974 215.435 116.438 215.548 116.009 215.774C115.579 216.001 115.235 216.313 114.978 216.712C114.72 217.11 114.532 217.567 114.415 218.083C114.306 218.591 114.251 219.13 114.251 219.7ZM122.466 218.505L121.013 218.95C121.021 218.255 121.134 217.587 121.353 216.946C121.579 216.306 121.903 215.735 122.325 215.235C122.755 214.735 123.282 214.341 123.907 214.052C124.532 213.755 125.247 213.606 126.052 213.606C126.731 213.606 127.333 213.696 127.856 213.876C128.388 214.056 128.833 214.333 129.192 214.708C129.56 215.075 129.837 215.548 130.024 216.126C130.212 216.704 130.306 217.392 130.306 218.188V226.521H128.126V218.165C128.126 217.454 128.013 216.903 127.786 216.513C127.567 216.114 127.255 215.837 126.849 215.681C126.45 215.517 125.974 215.435 125.419 215.435C124.942 215.435 124.521 215.517 124.153 215.681C123.786 215.845 123.478 216.071 123.228 216.36C122.978 216.642 122.786 216.966 122.653 217.333C122.528 217.7 122.466 218.091 122.466 218.505ZM141.345 223.591V213.841H143.524V226.521H141.45L141.345 223.591ZM141.755 220.919L142.657 220.896C142.657 221.739 142.567 222.521 142.388 223.239C142.216 223.95 141.935 224.567 141.544 225.091C141.153 225.614 140.642 226.024 140.009 226.321C139.376 226.61 138.606 226.755 137.7 226.755C137.083 226.755 136.517 226.665 136.001 226.485C135.493 226.306 135.056 226.028 134.688 225.653C134.321 225.278 134.036 224.79 133.833 224.188C133.638 223.587 133.54 222.864 133.54 222.021V213.841H135.708V222.044C135.708 222.614 135.771 223.087 135.896 223.462C136.028 223.829 136.204 224.122 136.423 224.341C136.649 224.552 136.899 224.7 137.173 224.786C137.454 224.872 137.743 224.915 138.04 224.915C138.962 224.915 139.692 224.739 140.231 224.388C140.771 224.028 141.157 223.548 141.392 222.946C141.634 222.337 141.755 221.661 141.755 220.919ZM148.997 216.548V226.521H146.829V213.841H148.88L148.997 216.548ZM148.481 219.7L147.579 219.665C147.587 218.798 147.716 217.997 147.966 217.263C148.216 216.521 148.567 215.876 149.021 215.329C149.474 214.782 150.013 214.36 150.638 214.063C151.271 213.759 151.97 213.606 152.735 213.606C153.36 213.606 153.923 213.692 154.423 213.864C154.923 214.028 155.349 214.294 155.7 214.661C156.06 215.028 156.333 215.505 156.521 216.091C156.708 216.669 156.802 217.376 156.802 218.212V226.521H154.622V218.188C154.622 217.524 154.524 216.993 154.329 216.595C154.134 216.188 153.849 215.896 153.474 215.716C153.099 215.528 152.638 215.435 152.091 215.435C151.552 215.435 151.06 215.548 150.614 215.774C150.177 216.001 149.798 216.313 149.478 216.712C149.165 217.11 148.919 217.567 148.739 218.083C148.567 218.591 148.481 219.13 148.481 219.7ZM162.45 213.841V226.521H160.271V213.841H162.45ZM160.106 210.478C160.106 210.126 160.212 209.829 160.423 209.587C160.642 209.345 160.962 209.224 161.384 209.224C161.798 209.224 162.114 209.345 162.333 209.587C162.56 209.829 162.673 210.126 162.673 210.478C162.673 210.813 162.56 211.103 162.333 211.345C162.114 211.579 161.798 211.696 161.384 211.696C160.962 211.696 160.642 211.579 160.423 211.345C160.212 211.103 160.106 210.813 160.106 210.478ZM171.239 213.841V215.505H164.384V213.841H171.239ZM166.704 210.759H168.872V223.38C168.872 223.81 168.938 224.134 169.071 224.353C169.204 224.571 169.376 224.716 169.587 224.786C169.798 224.856 170.024 224.892 170.267 224.892C170.446 224.892 170.634 224.876 170.829 224.845C171.032 224.806 171.185 224.774 171.286 224.751L171.298 226.521C171.126 226.575 170.899 226.626 170.618 226.673C170.345 226.728 170.013 226.755 169.622 226.755C169.091 226.755 168.603 226.649 168.157 226.438C167.712 226.228 167.356 225.876 167.091 225.384C166.833 224.884 166.704 224.212 166.704 223.368V210.759ZM177.345 225.208L180.872 213.841H183.192L178.106 228.478C177.989 228.79 177.833 229.126 177.638 229.485C177.45 229.853 177.208 230.2 176.911 230.528C176.614 230.856 176.255 231.122 175.833 231.325C175.419 231.536 174.923 231.642 174.345 231.642C174.173 231.642 173.954 231.618 173.688 231.571C173.423 231.524 173.235 231.485 173.126 231.454L173.114 229.696C173.177 229.704 173.274 229.712 173.407 229.72C173.548 229.735 173.646 229.743 173.7 229.743C174.192 229.743 174.61 229.677 174.954 229.544C175.298 229.419 175.587 229.204 175.821 228.899C176.063 228.603 176.271 228.192 176.442 227.669L177.345 225.208ZM174.755 213.841L178.048 223.685L178.61 225.97L177.052 226.767L172.388 213.841H174.755ZM196.048 226.521H192.485L192.509 224.681H196.048C197.267 224.681 198.282 224.427 199.095 223.919C199.907 223.403 200.517 222.685 200.923 221.763C201.337 220.833 201.544 219.747 201.544 218.505V217.462C201.544 216.485 201.427 215.618 201.192 214.86C200.958 214.095 200.614 213.45 200.161 212.927C199.708 212.396 199.153 211.993 198.497 211.72C197.849 211.446 197.103 211.31 196.259 211.31H192.415V209.458H196.259C197.376 209.458 198.396 209.646 199.317 210.021C200.239 210.388 201.032 210.923 201.696 211.626C202.368 212.321 202.884 213.165 203.243 214.157C203.603 215.142 203.782 216.251 203.782 217.485V218.505C203.782 219.739 203.603 220.853 203.243 221.845C202.884 222.829 202.364 223.669 201.685 224.364C201.013 225.06 200.2 225.595 199.247 225.97C198.302 226.337 197.235 226.521 196.048 226.521ZM193.692 209.458V226.521H191.431V209.458H193.692ZM212.114 226.755C211.231 226.755 210.431 226.606 209.712 226.31C209.001 226.005 208.388 225.579 207.872 225.032C207.364 224.485 206.974 223.837 206.7 223.087C206.427 222.337 206.29 221.517 206.29 220.626V220.134C206.29 219.103 206.442 218.185 206.747 217.38C207.052 216.567 207.466 215.88 207.989 215.317C208.513 214.755 209.106 214.329 209.771 214.04C210.435 213.751 211.122 213.606 211.833 213.606C212.739 213.606 213.521 213.763 214.177 214.075C214.841 214.388 215.384 214.825 215.806 215.388C216.228 215.942 216.54 216.599 216.743 217.356C216.946 218.106 217.048 218.927 217.048 219.817V220.79H207.579V219.021H214.88V218.856C214.849 218.294 214.731 217.747 214.528 217.216C214.333 216.685 214.021 216.247 213.591 215.903C213.161 215.56 212.575 215.388 211.833 215.388C211.341 215.388 210.888 215.493 210.474 215.704C210.06 215.907 209.704 216.212 209.407 216.618C209.11 217.024 208.88 217.521 208.716 218.106C208.552 218.692 208.47 219.368 208.47 220.134V220.626C208.47 221.228 208.552 221.794 208.716 222.325C208.888 222.849 209.134 223.31 209.454 223.708C209.782 224.106 210.177 224.419 210.638 224.646C211.106 224.872 211.638 224.985 212.231 224.985C212.997 224.985 213.646 224.829 214.177 224.517C214.708 224.204 215.173 223.786 215.571 223.263L216.884 224.306C216.61 224.72 216.263 225.114 215.841 225.489C215.419 225.864 214.899 226.169 214.282 226.403C213.673 226.638 212.95 226.755 212.114 226.755ZM223.271 224.563L226.739 213.841H228.954L224.396 226.521H222.942L223.271 224.563ZM220.376 213.841L223.95 224.622L224.196 226.521H222.743L218.149 213.841H220.376ZM236.138 226.755C235.255 226.755 234.454 226.606 233.735 226.31C233.024 226.005 232.411 225.579 231.896 225.032C231.388 224.485 230.997 223.837 230.724 223.087C230.45 222.337 230.313 221.517 230.313 220.626V220.134C230.313 219.103 230.466 218.185 230.771 217.38C231.075 216.567 231.489 215.88 232.013 215.317C232.536 214.755 233.13 214.329 233.794 214.04C234.458 213.751 235.146 213.606 235.856 213.606C236.763 213.606 237.544 213.763 238.2 214.075C238.864 214.388 239.407 214.825 239.829 215.388C240.251 215.942 240.563 216.599 240.767 217.356C240.97 218.106 241.071 218.927 241.071 219.817V220.79H231.603V219.021H238.903V218.856C238.872 218.294 238.755 217.747 238.552 217.216C238.356 216.685 238.044 216.247 237.614 215.903C237.185 215.56 236.599 215.388 235.856 215.388C235.364 215.388 234.911 215.493 234.497 215.704C234.083 215.907 233.728 216.212 233.431 216.618C233.134 217.024 232.903 217.521 232.739 218.106C232.575 218.692 232.493 219.368 232.493 220.134V220.626C232.493 221.228 232.575 221.794 232.739 222.325C232.911 222.849 233.157 223.31 233.478 223.708C233.806 224.106 234.2 224.419 234.661 224.646C235.13 224.872 235.661 224.985 236.255 224.985C237.021 224.985 237.669 224.829 238.2 224.517C238.731 224.204 239.196 223.786 239.595 223.263L240.907 224.306C240.634 224.72 240.286 225.114 239.864 225.489C239.442 225.864 238.923 226.169 238.306 226.403C237.696 226.638 236.974 226.755 236.138 226.755ZM245.958 208.521V226.521H243.778V208.521H245.958ZM248.864 220.321V220.052C248.864 219.138 248.997 218.29 249.263 217.509C249.528 216.72 249.911 216.036 250.411 215.458C250.911 214.872 251.517 214.419 252.228 214.099C252.938 213.771 253.735 213.606 254.618 213.606C255.509 213.606 256.31 213.771 257.021 214.099C257.739 214.419 258.349 214.872 258.849 215.458C259.356 216.036 259.743 216.72 260.009 217.509C260.274 218.29 260.407 219.138 260.407 220.052V220.321C260.407 221.235 260.274 222.083 260.009 222.864C259.743 223.646 259.356 224.329 258.849 224.915C258.349 225.493 257.743 225.946 257.032 226.274C256.329 226.595 255.532 226.755 254.642 226.755C253.751 226.755 252.95 226.595 252.239 226.274C251.528 225.946 250.919 225.493 250.411 224.915C249.911 224.329 249.528 223.646 249.263 222.864C248.997 222.083 248.864 221.235 248.864 220.321ZM251.032 220.052V220.321C251.032 220.954 251.106 221.552 251.255 222.114C251.403 222.669 251.626 223.161 251.923 223.591C252.228 224.021 252.606 224.36 253.06 224.61C253.513 224.853 254.04 224.974 254.642 224.974C255.235 224.974 255.755 224.853 256.2 224.61C256.653 224.36 257.028 224.021 257.325 223.591C257.622 223.161 257.845 222.669 257.993 222.114C258.149 221.552 258.228 220.954 258.228 220.321V220.052C258.228 219.427 258.149 218.837 257.993 218.282C257.845 217.72 257.618 217.224 257.313 216.794C257.017 216.356 256.642 216.013 256.188 215.763C255.743 215.513 255.22 215.388 254.618 215.388C254.024 215.388 253.501 215.513 253.048 215.763C252.603 216.013 252.228 216.356 251.923 216.794C251.626 217.224 251.403 217.72 251.255 218.282C251.106 218.837 251.032 219.427 251.032 220.052ZM265.294 216.278V231.396H263.114V213.841H265.106L265.294 216.278ZM273.837 220.075V220.321C273.837 221.243 273.728 222.099 273.509 222.888C273.29 223.669 272.97 224.349 272.548 224.927C272.134 225.505 271.622 225.954 271.013 226.274C270.403 226.595 269.704 226.755 268.915 226.755C268.11 226.755 267.399 226.622 266.782 226.356C266.165 226.091 265.642 225.704 265.212 225.196C264.782 224.688 264.438 224.079 264.181 223.368C263.931 222.657 263.759 221.856 263.665 220.966V219.653C263.759 218.716 263.935 217.876 264.192 217.134C264.45 216.392 264.79 215.759 265.212 215.235C265.642 214.704 266.161 214.302 266.771 214.028C267.38 213.747 268.083 213.606 268.88 213.606C269.677 213.606 270.384 213.763 271.001 214.075C271.618 214.38 272.138 214.817 272.56 215.388C272.981 215.958 273.298 216.642 273.509 217.438C273.728 218.228 273.837 219.106 273.837 220.075ZM271.657 220.321V220.075C271.657 219.442 271.591 218.849 271.458 218.294C271.325 217.731 271.118 217.239 270.837 216.817C270.563 216.388 270.212 216.052 269.782 215.81C269.353 215.56 268.841 215.435 268.247 215.435C267.7 215.435 267.224 215.528 266.817 215.716C266.419 215.903 266.079 216.157 265.798 216.478C265.517 216.79 265.286 217.149 265.106 217.556C264.935 217.954 264.806 218.368 264.72 218.798V221.833C264.876 222.38 265.095 222.896 265.376 223.38C265.657 223.856 266.032 224.243 266.501 224.54C266.97 224.829 267.56 224.974 268.271 224.974C268.856 224.974 269.36 224.853 269.782 224.61C270.212 224.36 270.563 224.021 270.837 223.591C271.118 223.161 271.325 222.669 271.458 222.114C271.591 221.552 271.657 220.954 271.657 220.321ZM278.759 216.36V226.521H276.579V213.841H278.642L278.759 216.36ZM278.313 219.7L277.306 219.665C277.313 218.798 277.427 217.997 277.646 217.263C277.864 216.521 278.188 215.876 278.618 215.329C279.048 214.782 279.583 214.36 280.224 214.063C280.864 213.759 281.606 213.606 282.45 213.606C283.044 213.606 283.591 213.692 284.091 213.864C284.591 214.028 285.024 214.29 285.392 214.649C285.759 215.009 286.044 215.47 286.247 216.032C286.45 216.595 286.552 217.274 286.552 218.071V226.521H284.384V218.177C284.384 217.513 284.271 216.981 284.044 216.583C283.825 216.185 283.513 215.896 283.106 215.716C282.7 215.528 282.224 215.435 281.677 215.435C281.036 215.435 280.501 215.548 280.071 215.774C279.642 216.001 279.298 216.313 279.04 216.712C278.782 217.11 278.595 217.567 278.478 218.083C278.368 218.591 278.313 219.13 278.313 219.7ZM286.528 218.505L285.075 218.95C285.083 218.255 285.196 217.587 285.415 216.946C285.642 216.306 285.966 215.735 286.388 215.235C286.817 214.735 287.345 214.341 287.97 214.052C288.595 213.755 289.31 213.606 290.114 213.606C290.794 213.606 291.396 213.696 291.919 213.876C292.45 214.056 292.896 214.333 293.255 214.708C293.622 215.075 293.899 215.548 294.087 216.126C294.274 216.704 294.368 217.392 294.368 218.188V226.521H292.188V218.165C292.188 217.454 292.075 216.903 291.849 216.513C291.63 216.114 291.317 215.837 290.911 215.681C290.513 215.517 290.036 215.435 289.481 215.435C289.005 215.435 288.583 215.517 288.216 215.681C287.849 215.845 287.54 216.071 287.29 216.36C287.04 216.642 286.849 216.966 286.716 217.333C286.591 217.7 286.528 218.091 286.528 218.505ZM302.911 226.755C302.028 226.755 301.228 226.606 300.509 226.31C299.798 226.005 299.185 225.579 298.669 225.032C298.161 224.485 297.771 223.837 297.497 223.087C297.224 222.337 297.087 221.517 297.087 220.626V220.134C297.087 219.103 297.239 218.185 297.544 217.38C297.849 216.567 298.263 215.88 298.786 215.317C299.31 214.755 299.903 214.329 300.567 214.04C301.231 213.751 301.919 213.606 302.63 213.606C303.536 213.606 304.317 213.763 304.974 214.075C305.638 214.388 306.181 214.825 306.603 215.388C307.024 215.942 307.337 216.599 307.54 217.356C307.743 218.106 307.845 218.927 307.845 219.817V220.79H298.376V219.021H305.677V218.856C305.646 218.294 305.528 217.747 305.325 217.216C305.13 216.685 304.817 216.247 304.388 215.903C303.958 215.56 303.372 215.388 302.63 215.388C302.138 215.388 301.685 215.493 301.271 215.704C300.856 215.907 300.501 216.212 300.204 216.618C299.907 217.024 299.677 217.521 299.513 218.106C299.349 218.692 299.267 219.368 299.267 220.134V220.626C299.267 221.228 299.349 221.794 299.513 222.325C299.685 222.849 299.931 223.31 300.251 223.708C300.579 224.106 300.974 224.419 301.435 224.646C301.903 224.872 302.435 224.985 303.028 224.985C303.794 224.985 304.442 224.829 304.974 224.517C305.505 224.204 305.97 223.786 306.368 223.263L307.681 224.306C307.407 224.72 307.06 225.114 306.638 225.489C306.216 225.864 305.696 226.169 305.079 226.403C304.47 226.638 303.747 226.755 302.911 226.755ZM312.544 216.548V226.521H310.376V213.841H312.427L312.544 216.548ZM312.028 219.7L311.126 219.665C311.134 218.798 311.263 217.997 311.513 217.263C311.763 216.521 312.114 215.876 312.567 215.329C313.021 214.782 313.56 214.36 314.185 214.063C314.817 213.759 315.517 213.606 316.282 213.606C316.907 213.606 317.47 213.692 317.97 213.864C318.47 214.028 318.896 214.294 319.247 214.661C319.606 215.028 319.88 215.505 320.067 216.091C320.255 216.669 320.349 217.376 320.349 218.212V226.521H318.169V218.188C318.169 217.524 318.071 216.993 317.876 216.595C317.681 216.188 317.396 215.896 317.021 215.716C316.646 215.528 316.185 215.435 315.638 215.435C315.099 215.435 314.606 215.548 314.161 215.774C313.724 216.001 313.345 216.313 313.024 216.712C312.712 217.11 312.466 217.567 312.286 218.083C312.114 218.591 312.028 219.13 312.028 219.7ZM328.95 213.841V215.505H322.095V213.841H328.95ZM324.415 210.759H326.583V223.38C326.583 223.81 326.649 224.134 326.782 224.353C326.915 224.571 327.087 224.716 327.298 224.786C327.509 224.856 327.735 224.892 327.978 224.892C328.157 224.892 328.345 224.876 328.54 224.845C328.743 224.806 328.896 224.774 328.997 224.751L329.009 226.521C328.837 226.575 328.61 226.626 328.329 226.673C328.056 226.728 327.724 226.755 327.333 226.755C326.802 226.755 326.313 226.649 325.868 226.438C325.423 226.228 325.067 225.876 324.802 225.384C324.544 224.884 324.415 224.212 324.415 223.368V210.759ZM341.958 218.376V220.157H336.239V218.376H341.958ZM356.923 209.364V226.521H354.755V212.071L350.384 213.665V211.708L356.583 209.364H356.923ZM374.009 216.63V219.231C374.009 220.63 373.884 221.81 373.634 222.771C373.384 223.731 373.024 224.505 372.556 225.091C372.087 225.677 371.521 226.103 370.856 226.368C370.2 226.626 369.458 226.755 368.63 226.755C367.974 226.755 367.368 226.673 366.813 226.509C366.259 226.345 365.759 226.083 365.313 225.724C364.876 225.356 364.501 224.88 364.188 224.294C363.876 223.708 363.638 222.997 363.474 222.161C363.31 221.325 363.228 220.349 363.228 219.231V216.63C363.228 215.231 363.353 214.06 363.603 213.114C363.86 212.169 364.224 211.411 364.692 210.841C365.161 210.263 365.724 209.849 366.38 209.599C367.044 209.349 367.786 209.224 368.606 209.224C369.271 209.224 369.88 209.306 370.435 209.47C370.997 209.626 371.497 209.88 371.935 210.231C372.372 210.575 372.743 211.036 373.048 211.614C373.36 212.185 373.599 212.884 373.763 213.712C373.927 214.54 374.009 215.513 374.009 216.63ZM371.829 219.583V216.267C371.829 215.501 371.782 214.829 371.688 214.251C371.603 213.665 371.474 213.165 371.302 212.751C371.13 212.337 370.911 212.001 370.646 211.743C370.388 211.485 370.087 211.298 369.743 211.181C369.407 211.056 369.028 210.993 368.606 210.993C368.091 210.993 367.634 211.091 367.235 211.286C366.837 211.474 366.501 211.774 366.228 212.188C365.962 212.603 365.759 213.146 365.618 213.817C365.478 214.489 365.407 215.306 365.407 216.267V219.583C365.407 220.349 365.45 221.024 365.536 221.61C365.63 222.196 365.767 222.704 365.946 223.134C366.126 223.556 366.345 223.903 366.603 224.177C366.86 224.45 367.157 224.653 367.493 224.786C367.837 224.911 368.216 224.974 368.63 224.974C369.161 224.974 369.626 224.872 370.024 224.669C370.423 224.466 370.755 224.149 371.021 223.72C371.294 223.282 371.497 222.724 371.63 222.044C371.763 221.356 371.829 220.536 371.829 219.583ZM376.61 213.642V212.739C376.61 212.091 376.751 211.501 377.032 210.97C377.313 210.438 377.716 210.013 378.239 209.692C378.763 209.372 379.384 209.212 380.103 209.212C380.837 209.212 381.462 209.372 381.978 209.692C382.501 210.013 382.903 210.438 383.185 210.97C383.466 211.501 383.606 212.091 383.606 212.739V213.642C383.606 214.274 383.466 214.856 383.185 215.388C382.911 215.919 382.513 216.345 381.989 216.665C381.474 216.985 380.853 217.146 380.126 217.146C379.399 217.146 378.771 216.985 378.239 216.665C377.716 216.345 377.313 215.919 377.032 215.388C376.751 214.856 376.61 214.274 376.61 213.642ZM378.239 212.739V213.642C378.239 214.001 378.306 214.341 378.438 214.661C378.579 214.981 378.79 215.243 379.071 215.446C379.353 215.642 379.704 215.739 380.126 215.739C380.548 215.739 380.896 215.642 381.169 215.446C381.442 215.243 381.646 214.981 381.778 214.661C381.911 214.341 381.978 214.001 381.978 213.642V212.739C381.978 212.372 381.907 212.028 381.767 211.708C381.634 211.38 381.427 211.118 381.146 210.923C380.872 210.72 380.524 210.618 380.103 210.618C379.688 210.618 379.341 210.72 379.06 210.923C378.786 211.118 378.579 211.38 378.438 211.708C378.306 212.028 378.239 212.372 378.239 212.739ZM384.919 223.251V222.337C384.919 221.696 385.06 221.11 385.341 220.579C385.622 220.048 386.024 219.622 386.548 219.302C387.071 218.981 387.692 218.821 388.411 218.821C389.146 218.821 389.771 218.981 390.286 219.302C390.81 219.622 391.212 220.048 391.493 220.579C391.774 221.11 391.915 221.696 391.915 222.337V223.251C391.915 223.892 391.774 224.478 391.493 225.009C391.22 225.54 390.821 225.966 390.298 226.286C389.782 226.606 389.161 226.767 388.435 226.767C387.708 226.767 387.083 226.606 386.56 226.286C386.036 225.966 385.63 225.54 385.341 225.009C385.06 224.478 384.919 223.892 384.919 223.251ZM386.548 222.337V223.251C386.548 223.61 386.614 223.954 386.747 224.282C386.888 224.603 387.099 224.864 387.38 225.067C387.661 225.263 388.013 225.36 388.435 225.36C388.856 225.36 389.204 225.263 389.478 225.067C389.759 224.864 389.966 224.603 390.099 224.282C390.231 223.962 390.298 223.618 390.298 223.251V222.337C390.298 221.97 390.228 221.626 390.087 221.306C389.954 220.985 389.747 220.728 389.466 220.532C389.192 220.329 388.841 220.228 388.411 220.228C387.997 220.228 387.649 220.329 387.368 220.532C387.095 220.728 386.888 220.985 386.747 221.306C386.614 221.626 386.548 221.97 386.548 222.337ZM388.95 211.884L380.618 225.22L379.399 224.446L387.731 211.11L388.95 211.884Z" fill="white"/>
</svg>
