<svg width="420" height="420" viewBox="0 0 420 420" fill="none" xmlns="http://www.w3.org/2000/svg">
<path d="M210 359.521C249.782 359.521 287.935 343.717 316.066 315.587C344.196 287.456 360 249.303 360 209.521C360 169.738 344.196 131.585 316.066 103.455C287.935 75.324 249.782 59.5205 210 59.5205V119.521C233.869 119.521 256.761 129.003 273.639 145.881C290.518 162.759 300 185.651 300 209.521C300 233.39 290.518 256.282 273.639 273.16C256.761 290.038 233.869 299.521 210 299.521L210 359.521Z" fill="#158AC2"/>
<path d="M210 59.5205C178.323 59.5205 147.459 69.5488 121.832 88.168L157.099 136.709C172.475 125.537 190.994 119.521 210 119.521L210 59.5205Z" fill="#C2781F"/>
<path d="M88.6474 297.688C102.561 316.839 120.81 332.425 141.901 343.171C162.993 353.918 186.328 359.52 210 359.52L210 299.52C195.797 299.52 181.796 296.159 169.141 289.711C156.486 283.263 145.537 273.911 137.188 262.421L88.6474 297.688Z" fill="#C21F32"/>
<path d="M121.832 88.1677C105.896 99.746 92.3965 114.35 82.1042 131.145C71.8118 147.941 64.9284 166.599 61.8469 186.055C58.7655 205.511 59.5462 225.383 64.1447 244.537C68.7432 263.691 77.0693 281.752 88.6476 297.688L137.189 262.421C130.242 252.859 125.246 242.023 122.487 230.53C119.728 219.038 119.259 207.115 121.108 195.441C122.957 183.768 127.087 172.573 133.263 162.495C139.438 152.418 147.538 143.656 157.1 136.709L121.832 88.1677Z" fill="#02C22C"/>
</svg>
