<svg width="129" height="82" viewBox="0 0 129 82" fill="none" xmlns="http://www.w3.org/2000/svg">
<path d="M74.5909 52V34.5455H80.6818V37.8636H80.8636C81.1818 36.6364 81.6856 35.7386 82.375 35.1705C83.072 34.6023 83.8864 34.3182 84.8182 34.3182C85.0909 34.3182 85.3598 34.3409 85.625 34.3864C85.8977 34.4242 86.1591 34.4811 86.4091 34.5568V39.9091C86.0985 39.803 85.7159 39.7235 85.2614 39.6705C84.8068 39.6174 84.4167 39.5909 84.0909 39.5909C83.4773 39.5909 82.9242 39.7311 82.4318 40.0114C81.947 40.2841 81.5644 40.6705 81.2841 41.1705C81.0038 41.6629 80.8636 42.2424 80.8636 42.9091V52H74.5909ZM99.7841 44.3636V34.5455H106.057V52H100.102V48.6818H99.9205C99.5417 49.7955 98.8788 50.6667 97.9318 51.2955C96.9848 51.9167 95.8598 52.2273 94.5568 52.2273C93.3371 52.2273 92.2689 51.947 91.3523 51.3864C90.4432 50.8258 89.7348 50.053 89.2273 49.0682C88.7273 48.0833 88.4735 46.9545 88.4659 45.6818V34.5455H94.7386V44.3636C94.7462 45.2273 94.9659 45.9053 95.3977 46.3977C95.8371 46.8902 96.4508 47.1364 97.2386 47.1364C97.7614 47.1364 98.2121 47.0265 98.5909 46.8068C98.9773 46.5795 99.2727 46.2614 99.4773 45.8523C99.6894 45.4356 99.7917 44.9394 99.7841 44.3636ZM117.656 58.9091C115.906 58.9091 114.406 58.6591 113.156 58.1591C111.914 57.6667 110.948 56.9848 110.259 56.1136C109.577 55.25 109.194 54.2576 109.111 53.1364H115.156C115.217 53.5076 115.368 53.8068 115.611 54.0341C115.853 54.2614 116.164 54.4242 116.543 54.5227C116.929 54.6288 117.361 54.6818 117.838 54.6818C118.649 54.6818 119.319 54.4848 119.849 54.0909C120.387 53.697 120.656 52.9848 120.656 51.9545V49H120.474C120.247 49.5909 119.899 50.0947 119.429 50.5114C118.959 50.9205 118.395 51.2348 117.736 51.4545C117.077 51.6667 116.353 51.7727 115.565 51.7727C114.323 51.7727 113.179 51.4848 112.134 50.9091C111.096 50.3333 110.262 49.4205 109.634 48.1705C109.012 46.9205 108.702 45.2879 108.702 43.2727C108.702 41.1667 109.027 39.4545 109.679 38.1364C110.338 36.8182 111.187 35.8523 112.224 35.2386C113.27 34.625 114.368 34.3182 115.52 34.3182C116.384 34.3182 117.141 34.4697 117.793 34.7727C118.444 35.0682 118.99 35.4659 119.429 35.9659C119.868 36.4583 120.202 37 120.429 37.5909H120.565V34.5455H126.838V51.9545C126.838 53.4318 126.455 54.6856 125.69 55.7159C124.933 56.7538 123.865 57.5455 122.486 58.0909C121.107 58.6364 119.497 58.9091 117.656 58.9091ZM117.884 47.3182C118.459 47.3182 118.952 47.1591 119.361 46.8409C119.777 46.5152 120.096 46.053 120.315 45.4545C120.543 44.8485 120.656 44.1212 120.656 43.2727C120.656 42.4091 120.543 41.6705 120.315 41.0568C120.096 40.4356 119.777 39.9621 119.361 39.6364C118.952 39.303 118.459 39.1364 117.884 39.1364C117.308 39.1364 116.815 39.303 116.406 39.6364C116.005 39.9621 115.694 40.4356 115.474 41.0568C115.262 41.6705 115.156 42.4091 115.156 43.2727C115.156 44.1364 115.262 44.8712 115.474 45.4773C115.694 46.0758 116.005 46.5341 116.406 46.8523C116.815 47.1629 117.308 47.3182 117.884 47.3182Z" fill="white"/>
<path d="M29.6818 32L25.3182 14.5455H31.5909L33.5909 25.1818H33.7273L35.9545 14.5455H42.0455L44.3636 25.0909H44.5L46.4091 14.5455H52.6818L48.3182 32H41.5455L39.0909 22.6364H38.9091L36.4545 32H29.6818ZM62.642 32.3182C60.7784 32.3182 59.1723 31.9621 57.8239 31.25C56.483 30.5303 55.4489 29.5 54.7216 28.1591C54.0019 26.8106 53.642 25.197 53.642 23.3182C53.642 21.5152 54.0057 19.9394 54.733 18.5909C55.4602 17.2424 56.4867 16.1932 57.8125 15.4432C59.1383 14.6932 60.7027 14.3182 62.5057 14.3182C63.8239 14.3182 65.017 14.5227 66.0852 14.9318C67.1534 15.3409 68.0663 15.9356 68.8239 16.7159C69.5814 17.4886 70.1648 18.428 70.5739 19.5341C70.983 20.6402 71.1875 21.8864 71.1875 23.2727V24.7273H55.5966V21.2727H65.4148C65.4072 20.7727 65.2784 20.3333 65.0284 19.9545C64.786 19.5682 64.4564 19.2689 64.0398 19.0568C63.6307 18.8371 63.1648 18.7273 62.642 18.7273C62.1345 18.7273 61.6686 18.8371 61.2443 19.0568C60.8201 19.2689 60.4792 19.5644 60.2216 19.9432C59.9716 20.322 59.839 20.7652 59.8239 21.2727V25C59.8239 25.5606 59.9413 26.0606 60.1761 26.5C60.411 26.9394 60.7481 27.2841 61.1875 27.5341C61.6269 27.7841 62.1572 27.9091 62.7784 27.9091C63.2102 27.9091 63.6042 27.8485 63.9602 27.7273C64.3239 27.6061 64.6345 27.4318 64.892 27.2045C65.1496 26.9697 65.339 26.6894 65.4602 26.3636H71.1875C70.9905 27.5758 70.5246 28.6288 69.7898 29.5227C69.0549 30.4091 68.0814 31.0985 66.8693 31.5909C65.6648 32.0758 64.2557 32.3182 62.642 32.3182ZM76.6193 32L72.2557 14.5455H78.5284L80.5284 25.1818H80.6648L82.892 14.5455H88.983L91.3011 25.0909H91.4375L93.3466 14.5455H99.6193L95.2557 32H88.483L86.0284 22.6364H85.8466L83.392 32H76.6193ZM101.528 32V14.5455H107.801V32H101.528ZM104.665 12.7273C103.816 12.7273 103.089 12.447 102.483 11.8864C101.877 11.3258 101.574 10.6515 101.574 9.86364C101.574 9.07576 101.877 8.40151 102.483 7.84091C103.089 7.2803 103.816 7 104.665 7C105.521 7 106.248 7.2803 106.847 7.84091C107.453 8.40151 107.756 9.07576 107.756 9.86364C107.756 10.6515 107.453 11.3258 106.847 11.8864C106.248 12.447 105.521 12.7273 104.665 12.7273ZM117.27 8.72727V32H110.997V8.72727H117.27ZM126.739 8.72727V32H120.466V8.72727H126.739Z" fill="white"/>
<rect x="42" y="41" width="6" height="15" rx="0.5" fill="#C11E2E"/>
<rect x="34" y="41" width="6" height="25" rx="0.5" fill="#C11E2E"/>
<rect x="26" y="41" width="6" height="35" rx="0.5" fill="#C11E2E"/>
<path d="M29 82L23.8038 73H34.1962L29 82Z" fill="#C11E2E"/>
<path d="M19 0L24.1962 9L13.8038 9L19 0Z" fill="#002F2F"/>
<rect x="22" y="41" width="6" height="35" rx="0.5" transform="rotate(-180 22 41)" fill="#002F2F"/>
<rect x="14" y="40.9638" width="6" height="25" rx="0.5" transform="rotate(-180 14 40.9638)" fill="#002F2F"/>
<rect x="6" y="40.9276" width="6" height="15" rx="0.5" transform="rotate(-180 6 40.9276)" fill="#002F2F"/>
</svg>
